G04 #@! TF.GenerationSoftware,KiCad,Pcbnew,8.0.1*
G04 #@! TF.CreationDate,2025-03-04T19:56:39+01:00*
G04 #@! TF.ProjectId,arroseurPCB,6172726f-7365-4757-9250-43422e6b6963,rev?*
G04 #@! TF.SameCoordinates,Original*
G04 #@! TF.FileFunction,Soldermask,Top*
G04 #@! TF.FilePolarity,Negative*
%FSLAX46Y46*%
G04 Gerber Fmt 4.6, Leading zero omitted, Abs format (unit mm)*
G04 Created by KiCad (PCBNEW 8.0.1) date 2025-03-04 19:56:39*
%MOMM*%
%LPD*%
G01*
G04 APERTURE LIST*
G04 Aperture macros list*
%AMRoundRect*
0 Rectangle with rounded corners*
0 $1 Rounding radius*
0 $2 $3 $4 $5 $6 $7 $8 $9 X,Y pos of 4 corners*
0 Add a 4 corners polygon primitive as box body*
4,1,4,$2,$3,$4,$5,$6,$7,$8,$9,$2,$3,0*
0 Add four circle primitives for the rounded corners*
1,1,$1+$1,$2,$3*
1,1,$1+$1,$4,$5*
1,1,$1+$1,$6,$7*
1,1,$1+$1,$8,$9*
0 Add four rect primitives between the rounded corners*
20,1,$1+$1,$2,$3,$4,$5,0*
20,1,$1+$1,$4,$5,$6,$7,0*
20,1,$1+$1,$6,$7,$8,$9,0*
20,1,$1+$1,$8,$9,$2,$3,0*%
G04 Aperture macros list end*
%ADD10R,2.200000X2.200000*%
%ADD11O,2.200000X2.200000*%
%ADD12C,1.600000*%
%ADD13O,1.600000X1.600000*%
%ADD14R,1.100000X1.800000*%
%ADD15RoundRect,0.275000X0.275000X0.625000X-0.275000X0.625000X-0.275000X-0.625000X0.275000X-0.625000X0*%
%ADD16R,1.600000X1.600000*%
%ADD17RoundRect,0.102000X-0.975000X-0.975000X0.975000X-0.975000X0.975000X0.975000X-0.975000X0.975000X0*%
%ADD18C,2.154000*%
%ADD19R,1.800000X1.800000*%
%ADD20C,1.800000*%
%ADD21RoundRect,1.000000X0.000010X1.100000X-0.000010X1.100000X-0.000010X-1.100000X0.000010X-1.100000X0*%
%ADD22RoundRect,1.000000X-1.100000X0.000010X-1.100000X-0.000010X1.100000X-0.000010X1.100000X0.000010X0*%
%ADD23RoundRect,1.000000X-0.000010X-1.100000X0.000010X-1.100000X0.000010X1.100000X-0.000010X1.100000X0*%
%ADD24RoundRect,0.102000X-0.762000X-0.762000X0.762000X-0.762000X0.762000X0.762000X-0.762000X0.762000X0*%
%ADD25C,1.728000*%
%ADD26RoundRect,1.000000X1.100000X-0.000010X1.100000X0.000010X-1.100000X0.000010X-1.100000X-0.000010X0*%
G04 APERTURE END LIST*
D10*
X134000000Y-61810000D03*
D11*
X134000000Y-54190000D03*
D12*
X140260000Y-116500000D03*
D13*
X155500000Y-116500000D03*
D12*
X140385000Y-140500000D03*
D13*
X155625000Y-140500000D03*
D12*
X140385000Y-145000000D03*
D13*
X155625000Y-145000000D03*
D14*
X170270000Y-127330000D03*
D15*
X169000000Y-129400000D03*
X167730000Y-127330000D03*
D16*
X161000000Y-93500000D03*
D12*
X163500000Y-93500000D03*
D17*
X140760000Y-71500000D03*
D18*
X140760000Y-63900000D03*
X153460000Y-71500000D03*
X156000000Y-63900000D03*
D19*
X169500000Y-66360000D03*
D20*
X169500000Y-63820000D03*
D19*
X169500000Y-123500000D03*
D20*
X169500000Y-120960000D03*
D17*
X140910000Y-157300000D03*
D18*
X140910000Y-149700000D03*
X153610000Y-157300000D03*
X156150000Y-149700000D03*
D14*
X170270000Y-98830000D03*
D15*
X169000000Y-100900000D03*
X167730000Y-98830000D03*
D12*
X140260000Y-112000000D03*
D13*
X155500000Y-112000000D03*
D16*
X160500000Y-65050000D03*
D12*
X163000000Y-65050000D03*
D19*
X169500000Y-95000000D03*
D20*
X169500000Y-92460000D03*
D12*
X140260000Y-59050000D03*
D13*
X155500000Y-59050000D03*
D21*
X158800000Y-54700000D03*
D22*
X161800000Y-49900000D03*
D23*
X165000000Y-54700000D03*
D12*
X140260000Y-82950000D03*
D13*
X155500000Y-82950000D03*
D12*
X140260000Y-87500000D03*
D13*
X155500000Y-87500000D03*
D14*
X170270000Y-70150000D03*
D15*
X169000000Y-72220000D03*
X167730000Y-70150000D03*
D19*
X169500000Y-152275000D03*
D20*
X169500000Y-149735000D03*
D24*
X110640000Y-110400000D03*
D25*
X110640000Y-112940000D03*
X110640000Y-115480000D03*
X110640000Y-118020000D03*
X110640000Y-120560000D03*
X110640000Y-123100000D03*
X110640000Y-125640000D03*
X110640000Y-128180000D03*
X110640000Y-130720000D03*
X110640000Y-133260000D03*
X110640000Y-135800000D03*
X110640000Y-138340000D03*
X110640000Y-140880000D03*
X110640000Y-143420000D03*
X110640000Y-145960000D03*
X110640000Y-148500000D03*
X133500000Y-110400000D03*
X133500000Y-112940000D03*
X133500000Y-115480000D03*
X133500000Y-118020000D03*
X133500000Y-120560000D03*
X133500000Y-123100000D03*
X133500000Y-125640000D03*
X133500000Y-128180000D03*
X133500000Y-130720000D03*
X133500000Y-133260000D03*
X133500000Y-135800000D03*
X133500000Y-138340000D03*
X133500000Y-140880000D03*
X133500000Y-143420000D03*
X133500000Y-145960000D03*
X133500000Y-148500000D03*
D16*
X160500000Y-151000000D03*
D12*
X163000000Y-151000000D03*
D21*
X158800000Y-140500000D03*
D22*
X161800000Y-135700000D03*
D23*
X165000000Y-140500000D03*
D12*
X127500000Y-65500000D03*
D13*
X127500000Y-50260000D03*
D12*
X140380000Y-136000000D03*
D13*
X155620000Y-136000000D03*
D17*
X140910000Y-128800000D03*
D18*
X140910000Y-121200000D03*
X153610000Y-128800000D03*
X156150000Y-121200000D03*
D12*
X140260000Y-50050000D03*
D13*
X155500000Y-50050000D03*
D21*
X158750000Y-112000000D03*
D22*
X161750000Y-107200000D03*
D23*
X164950000Y-112000000D03*
D16*
X161000000Y-122500000D03*
D12*
X163500000Y-122500000D03*
D23*
X122112500Y-57500000D03*
D26*
X119112500Y-62300000D03*
D21*
X115912500Y-57500000D03*
D17*
X140910000Y-99800000D03*
D18*
X140910000Y-92200000D03*
X153610000Y-99800000D03*
X156150000Y-92200000D03*
D14*
X170270000Y-156330000D03*
D15*
X169000000Y-158400000D03*
X167730000Y-156330000D03*
D12*
X140260000Y-78450000D03*
D13*
X155500000Y-78450000D03*
D12*
X140260000Y-54550000D03*
D13*
X155500000Y-54550000D03*
D21*
X158750000Y-83000000D03*
D22*
X161750000Y-78200000D03*
D23*
X164950000Y-83000000D03*
D12*
X140260000Y-107500000D03*
D13*
X155500000Y-107500000D03*
M02*
