G04 #@! TF.GenerationSoftware,KiCad,Pcbnew,8.0.1*
G04 #@! TF.CreationDate,2025-03-04T19:56:39+01:00*
G04 #@! TF.ProjectId,arroseurPCB,6172726f-7365-4757-9250-43422e6b6963,rev?*
G04 #@! TF.SameCoordinates,Original*
G04 #@! TF.FileFunction,Legend,Bot*
G04 #@! TF.FilePolarity,Positive*
%FSLAX46Y46*%
G04 Gerber Fmt 4.6, Leading zero omitted, Abs format (unit mm)*
G04 Created by KiCad (PCBNEW 8.0.1) date 2025-03-04 19:56:39*
%MOMM*%
%LPD*%
G01*
G04 APERTURE LIST*
G04 Aperture macros list*
%AMRoundRect*
0 Rectangle with rounded corners*
0 $1 Rounding radius*
0 $2 $3 $4 $5 $6 $7 $8 $9 X,Y pos of 4 corners*
0 Add a 4 corners polygon primitive as box body*
4,1,4,$2,$3,$4,$5,$6,$7,$8,$9,$2,$3,0*
0 Add four circle primitives for the rounded corners*
1,1,$1+$1,$2,$3*
1,1,$1+$1,$4,$5*
1,1,$1+$1,$6,$7*
1,1,$1+$1,$8,$9*
0 Add four rect primitives between the rounded corners*
20,1,$1+$1,$2,$3,$4,$5,0*
20,1,$1+$1,$4,$5,$6,$7,0*
20,1,$1+$1,$6,$7,$8,$9,0*
20,1,$1+$1,$8,$9,$2,$3,0*%
G04 Aperture macros list end*
%ADD10C,0.100000*%
%ADD11C,0.000000*%
%ADD12R,2.200000X2.200000*%
%ADD13O,2.200000X2.200000*%
%ADD14C,1.600000*%
%ADD15O,1.600000X1.600000*%
%ADD16R,1.100000X1.800000*%
%ADD17RoundRect,0.275000X0.275000X0.625000X-0.275000X0.625000X-0.275000X-0.625000X0.275000X-0.625000X0*%
%ADD18R,1.600000X1.600000*%
%ADD19RoundRect,0.102000X-0.975000X-0.975000X0.975000X-0.975000X0.975000X0.975000X-0.975000X0.975000X0*%
%ADD20C,2.154000*%
%ADD21R,1.800000X1.800000*%
%ADD22C,1.800000*%
%ADD23RoundRect,1.000000X0.000010X1.100000X-0.000010X1.100000X-0.000010X-1.100000X0.000010X-1.100000X0*%
%ADD24RoundRect,1.000000X-1.100000X0.000010X-1.100000X-0.000010X1.100000X-0.000010X1.100000X0.000010X0*%
%ADD25RoundRect,1.000000X-0.000010X-1.100000X0.000010X-1.100000X0.000010X1.100000X-0.000010X1.100000X0*%
%ADD26RoundRect,0.102000X-0.762000X-0.762000X0.762000X-0.762000X0.762000X0.762000X-0.762000X0.762000X0*%
%ADD27C,1.728000*%
%ADD28RoundRect,1.000000X1.100000X-0.000010X1.100000X0.000010X-1.100000X0.000010X-1.100000X-0.000010X0*%
G04 APERTURE END LIST*
D10*
X170872419Y-50589598D02*
X171586704Y-50589598D01*
X171586704Y-50589598D02*
X171729561Y-50541979D01*
X171729561Y-50541979D02*
X171824800Y-50446741D01*
X171824800Y-50446741D02*
X171872419Y-50303884D01*
X171872419Y-50303884D02*
X171872419Y-50208646D01*
X171872419Y-51541979D02*
X171872419Y-51065789D01*
X171872419Y-51065789D02*
X170872419Y-51065789D01*
X171777180Y-52446741D02*
X171824800Y-52399122D01*
X171824800Y-52399122D02*
X171872419Y-52256265D01*
X171872419Y-52256265D02*
X171872419Y-52161027D01*
X171872419Y-52161027D02*
X171824800Y-52018170D01*
X171824800Y-52018170D02*
X171729561Y-51922932D01*
X171729561Y-51922932D02*
X171634323Y-51875313D01*
X171634323Y-51875313D02*
X171443847Y-51827694D01*
X171443847Y-51827694D02*
X171300990Y-51827694D01*
X171300990Y-51827694D02*
X171110514Y-51875313D01*
X171110514Y-51875313D02*
X171015276Y-51922932D01*
X171015276Y-51922932D02*
X170920038Y-52018170D01*
X170920038Y-52018170D02*
X170872419Y-52161027D01*
X170872419Y-52161027D02*
X170872419Y-52256265D01*
X170872419Y-52256265D02*
X170920038Y-52399122D01*
X170920038Y-52399122D02*
X170967657Y-52446741D01*
X170872419Y-53161027D02*
X171586704Y-53161027D01*
X171586704Y-53161027D02*
X171729561Y-53113408D01*
X171729561Y-53113408D02*
X171824800Y-53018170D01*
X171824800Y-53018170D02*
X171872419Y-52875313D01*
X171872419Y-52875313D02*
X171872419Y-52780075D01*
X171872419Y-54113408D02*
X171872419Y-53637218D01*
X171872419Y-53637218D02*
X170872419Y-53637218D01*
X171777180Y-55018170D02*
X171824800Y-54970551D01*
X171824800Y-54970551D02*
X171872419Y-54827694D01*
X171872419Y-54827694D02*
X171872419Y-54732456D01*
X171872419Y-54732456D02*
X171824800Y-54589599D01*
X171824800Y-54589599D02*
X171729561Y-54494361D01*
X171729561Y-54494361D02*
X171634323Y-54446742D01*
X171634323Y-54446742D02*
X171443847Y-54399123D01*
X171443847Y-54399123D02*
X171300990Y-54399123D01*
X171300990Y-54399123D02*
X171110514Y-54446742D01*
X171110514Y-54446742D02*
X171015276Y-54494361D01*
X171015276Y-54494361D02*
X170920038Y-54589599D01*
X170920038Y-54589599D02*
X170872419Y-54732456D01*
X170872419Y-54732456D02*
X170872419Y-54827694D01*
X170872419Y-54827694D02*
X170920038Y-54970551D01*
X170920038Y-54970551D02*
X170967657Y-55018170D01*
X170872419Y-55732456D02*
X171586704Y-55732456D01*
X171586704Y-55732456D02*
X171729561Y-55684837D01*
X171729561Y-55684837D02*
X171824800Y-55589599D01*
X171824800Y-55589599D02*
X171872419Y-55446742D01*
X171872419Y-55446742D02*
X171872419Y-55351504D01*
X171872419Y-56684837D02*
X171872419Y-56208647D01*
X171872419Y-56208647D02*
X170872419Y-56208647D01*
X171777180Y-57589599D02*
X171824800Y-57541980D01*
X171824800Y-57541980D02*
X171872419Y-57399123D01*
X171872419Y-57399123D02*
X171872419Y-57303885D01*
X171872419Y-57303885D02*
X171824800Y-57161028D01*
X171824800Y-57161028D02*
X171729561Y-57065790D01*
X171729561Y-57065790D02*
X171634323Y-57018171D01*
X171634323Y-57018171D02*
X171443847Y-56970552D01*
X171443847Y-56970552D02*
X171300990Y-56970552D01*
X171300990Y-56970552D02*
X171110514Y-57018171D01*
X171110514Y-57018171D02*
X171015276Y-57065790D01*
X171015276Y-57065790D02*
X170920038Y-57161028D01*
X170920038Y-57161028D02*
X170872419Y-57303885D01*
X170872419Y-57303885D02*
X170872419Y-57399123D01*
X170872419Y-57399123D02*
X170920038Y-57541980D01*
X170920038Y-57541980D02*
X170967657Y-57589599D01*
X170872419Y-58303885D02*
X171586704Y-58303885D01*
X171586704Y-58303885D02*
X171729561Y-58256266D01*
X171729561Y-58256266D02*
X171824800Y-58161028D01*
X171824800Y-58161028D02*
X171872419Y-58018171D01*
X171872419Y-58018171D02*
X171872419Y-57922933D01*
X171872419Y-59256266D02*
X171872419Y-58780076D01*
X171872419Y-58780076D02*
X170872419Y-58780076D01*
X171777180Y-60161028D02*
X171824800Y-60113409D01*
X171824800Y-60113409D02*
X171872419Y-59970552D01*
X171872419Y-59970552D02*
X171872419Y-59875314D01*
X171872419Y-59875314D02*
X171824800Y-59732457D01*
X171824800Y-59732457D02*
X171729561Y-59637219D01*
X171729561Y-59637219D02*
X171634323Y-59589600D01*
X171634323Y-59589600D02*
X171443847Y-59541981D01*
X171443847Y-59541981D02*
X171300990Y-59541981D01*
X171300990Y-59541981D02*
X171110514Y-59589600D01*
X171110514Y-59589600D02*
X171015276Y-59637219D01*
X171015276Y-59637219D02*
X170920038Y-59732457D01*
X170920038Y-59732457D02*
X170872419Y-59875314D01*
X170872419Y-59875314D02*
X170872419Y-59970552D01*
X170872419Y-59970552D02*
X170920038Y-60113409D01*
X170920038Y-60113409D02*
X170967657Y-60161028D01*
X122249961Y-155958020D02*
X124249961Y-155958020D01*
X124249961Y-154910401D02*
X123869009Y-155100877D01*
X122249961Y-154053258D02*
X123583295Y-154053258D01*
X123392819Y-154053258D02*
X123488057Y-153958020D01*
X123488057Y-153958020D02*
X123583295Y-153767544D01*
X123583295Y-153767544D02*
X123583295Y-153481829D01*
X123583295Y-153481829D02*
X123488057Y-153291353D01*
X123488057Y-153291353D02*
X123297580Y-153196115D01*
X123297580Y-153196115D02*
X122249961Y-153196115D01*
X123297580Y-153196115D02*
X123488057Y-153100877D01*
X123488057Y-153100877D02*
X123583295Y-152910401D01*
X123583295Y-152910401D02*
X123583295Y-152624687D01*
X123583295Y-152624687D02*
X123488057Y-152434210D01*
X123488057Y-152434210D02*
X123297580Y-152338972D01*
X123297580Y-152338972D02*
X122249961Y-152338972D01*
X123583295Y-149862781D02*
X121869009Y-149862781D01*
X121869009Y-149862781D02*
X121678533Y-149958019D01*
X121678533Y-149958019D02*
X121583295Y-150148495D01*
X121583295Y-150148495D02*
X121583295Y-150243733D01*
X124249961Y-149862781D02*
X124154723Y-149958019D01*
X124154723Y-149958019D02*
X124059485Y-149862781D01*
X124059485Y-149862781D02*
X124154723Y-149767543D01*
X124154723Y-149767543D02*
X124249961Y-149862781D01*
X124249961Y-149862781D02*
X124059485Y-149862781D01*
X123583295Y-148053257D02*
X122249961Y-148053257D01*
X123583295Y-148910400D02*
X122535676Y-148910400D01*
X122535676Y-148910400D02*
X122345200Y-148815162D01*
X122345200Y-148815162D02*
X122249961Y-148624686D01*
X122249961Y-148624686D02*
X122249961Y-148338971D01*
X122249961Y-148338971D02*
X122345200Y-148148495D01*
X122345200Y-148148495D02*
X122440438Y-148053257D01*
X122345200Y-147196114D02*
X122249961Y-147005638D01*
X122249961Y-147005638D02*
X122249961Y-146624686D01*
X122249961Y-146624686D02*
X122345200Y-146434209D01*
X122345200Y-146434209D02*
X122535676Y-146338971D01*
X122535676Y-146338971D02*
X122630914Y-146338971D01*
X122630914Y-146338971D02*
X122821390Y-146434209D01*
X122821390Y-146434209D02*
X122916628Y-146624686D01*
X122916628Y-146624686D02*
X122916628Y-146910400D01*
X122916628Y-146910400D02*
X123011866Y-147100876D01*
X123011866Y-147100876D02*
X123202342Y-147196114D01*
X123202342Y-147196114D02*
X123297580Y-147196114D01*
X123297580Y-147196114D02*
X123488057Y-147100876D01*
X123488057Y-147100876D02*
X123583295Y-146910400D01*
X123583295Y-146910400D02*
X123583295Y-146624686D01*
X123583295Y-146624686D02*
X123488057Y-146434209D01*
X123583295Y-145767542D02*
X123583295Y-145005638D01*
X124249961Y-145481828D02*
X122535676Y-145481828D01*
X122535676Y-145481828D02*
X122345200Y-145386590D01*
X122345200Y-145386590D02*
X122249961Y-145196114D01*
X122249961Y-145196114D02*
X122249961Y-145005638D01*
X122249961Y-141958018D02*
X123297580Y-141958018D01*
X123297580Y-141958018D02*
X123488057Y-142053256D01*
X123488057Y-142053256D02*
X123583295Y-142243732D01*
X123583295Y-142243732D02*
X123583295Y-142624685D01*
X123583295Y-142624685D02*
X123488057Y-142815161D01*
X122345200Y-141958018D02*
X122249961Y-142148494D01*
X122249961Y-142148494D02*
X122249961Y-142624685D01*
X122249961Y-142624685D02*
X122345200Y-142815161D01*
X122345200Y-142815161D02*
X122535676Y-142910399D01*
X122535676Y-142910399D02*
X122726152Y-142910399D01*
X122726152Y-142910399D02*
X122916628Y-142815161D01*
X122916628Y-142815161D02*
X123011866Y-142624685D01*
X123011866Y-142624685D02*
X123011866Y-142148494D01*
X123011866Y-142148494D02*
X123107104Y-141958018D01*
X122345200Y-138624684D02*
X122249961Y-138815160D01*
X122249961Y-138815160D02*
X122249961Y-139196113D01*
X122249961Y-139196113D02*
X122345200Y-139386589D01*
X122345200Y-139386589D02*
X122440438Y-139481827D01*
X122440438Y-139481827D02*
X122630914Y-139577065D01*
X122630914Y-139577065D02*
X123202342Y-139577065D01*
X123202342Y-139577065D02*
X123392819Y-139481827D01*
X123392819Y-139481827D02*
X123488057Y-139386589D01*
X123488057Y-139386589D02*
X123583295Y-139196113D01*
X123583295Y-139196113D02*
X123583295Y-138815160D01*
X123583295Y-138815160D02*
X123488057Y-138624684D01*
X122249961Y-137767541D02*
X124249961Y-137767541D01*
X122249961Y-136910398D02*
X123297580Y-136910398D01*
X123297580Y-136910398D02*
X123488057Y-137005636D01*
X123488057Y-137005636D02*
X123583295Y-137196112D01*
X123583295Y-137196112D02*
X123583295Y-137481827D01*
X123583295Y-137481827D02*
X123488057Y-137672303D01*
X123488057Y-137672303D02*
X123392819Y-137767541D01*
X122249961Y-135958017D02*
X123583295Y-135958017D01*
X124249961Y-135958017D02*
X124154723Y-136053255D01*
X124154723Y-136053255D02*
X124059485Y-135958017D01*
X124059485Y-135958017D02*
X124154723Y-135862779D01*
X124154723Y-135862779D02*
X124249961Y-135958017D01*
X124249961Y-135958017D02*
X124059485Y-135958017D01*
X122249961Y-134719922D02*
X122345200Y-134910398D01*
X122345200Y-134910398D02*
X122535676Y-135005636D01*
X122535676Y-135005636D02*
X124249961Y-135005636D01*
X122249961Y-133672303D02*
X122345200Y-133862779D01*
X122345200Y-133862779D02*
X122535676Y-133958017D01*
X122535676Y-133958017D02*
X124249961Y-133958017D01*
X123583295Y-130529445D02*
X121964247Y-130529445D01*
X121964247Y-130529445D02*
X121773771Y-130624683D01*
X121773771Y-130624683D02*
X121678533Y-130719921D01*
X121678533Y-130719921D02*
X121583295Y-130910398D01*
X121583295Y-130910398D02*
X121583295Y-131196112D01*
X121583295Y-131196112D02*
X121678533Y-131386588D01*
X122345200Y-130529445D02*
X122249961Y-130719921D01*
X122249961Y-130719921D02*
X122249961Y-131100874D01*
X122249961Y-131100874D02*
X122345200Y-131291350D01*
X122345200Y-131291350D02*
X122440438Y-131386588D01*
X122440438Y-131386588D02*
X122630914Y-131481826D01*
X122630914Y-131481826D02*
X123202342Y-131481826D01*
X123202342Y-131481826D02*
X123392819Y-131386588D01*
X123392819Y-131386588D02*
X123488057Y-131291350D01*
X123488057Y-131291350D02*
X123583295Y-131100874D01*
X123583295Y-131100874D02*
X123583295Y-130719921D01*
X123583295Y-130719921D02*
X123488057Y-130529445D01*
X123583295Y-128719921D02*
X122249961Y-128719921D01*
X123583295Y-129577064D02*
X122535676Y-129577064D01*
X122535676Y-129577064D02*
X122345200Y-129481826D01*
X122345200Y-129481826D02*
X122249961Y-129291350D01*
X122249961Y-129291350D02*
X122249961Y-129005635D01*
X122249961Y-129005635D02*
X122345200Y-128815159D01*
X122345200Y-128815159D02*
X122440438Y-128719921D01*
X123583295Y-127958016D02*
X122249961Y-127481826D01*
X123583295Y-127005635D02*
X122249961Y-127481826D01*
X122249961Y-127481826D02*
X121773771Y-127672302D01*
X121773771Y-127672302D02*
X121678533Y-127767540D01*
X121678533Y-127767540D02*
X121583295Y-127958016D01*
X122249961Y-123862777D02*
X124249961Y-123862777D01*
X122345200Y-123862777D02*
X122249961Y-124053253D01*
X122249961Y-124053253D02*
X122249961Y-124434206D01*
X122249961Y-124434206D02*
X122345200Y-124624682D01*
X122345200Y-124624682D02*
X122440438Y-124719920D01*
X122440438Y-124719920D02*
X122630914Y-124815158D01*
X122630914Y-124815158D02*
X123202342Y-124815158D01*
X123202342Y-124815158D02*
X123392819Y-124719920D01*
X123392819Y-124719920D02*
X123488057Y-124624682D01*
X123488057Y-124624682D02*
X123583295Y-124434206D01*
X123583295Y-124434206D02*
X123583295Y-124053253D01*
X123583295Y-124053253D02*
X123488057Y-123862777D01*
X122345200Y-122148491D02*
X122249961Y-122338967D01*
X122249961Y-122338967D02*
X122249961Y-122719920D01*
X122249961Y-122719920D02*
X122345200Y-122910396D01*
X122345200Y-122910396D02*
X122535676Y-123005634D01*
X122535676Y-123005634D02*
X123297580Y-123005634D01*
X123297580Y-123005634D02*
X123488057Y-122910396D01*
X123488057Y-122910396D02*
X123583295Y-122719920D01*
X123583295Y-122719920D02*
X123583295Y-122338967D01*
X123583295Y-122338967D02*
X123488057Y-122148491D01*
X123488057Y-122148491D02*
X123297580Y-122053253D01*
X123297580Y-122053253D02*
X123107104Y-122053253D01*
X123107104Y-122053253D02*
X122916628Y-123005634D01*
X122345200Y-121291348D02*
X122249961Y-121100872D01*
X122249961Y-121100872D02*
X122249961Y-120719920D01*
X122249961Y-120719920D02*
X122345200Y-120529443D01*
X122345200Y-120529443D02*
X122535676Y-120434205D01*
X122535676Y-120434205D02*
X122630914Y-120434205D01*
X122630914Y-120434205D02*
X122821390Y-120529443D01*
X122821390Y-120529443D02*
X122916628Y-120719920D01*
X122916628Y-120719920D02*
X122916628Y-121005634D01*
X122916628Y-121005634D02*
X123011866Y-121196110D01*
X123011866Y-121196110D02*
X123202342Y-121291348D01*
X123202342Y-121291348D02*
X123297580Y-121291348D01*
X123297580Y-121291348D02*
X123488057Y-121196110D01*
X123488057Y-121196110D02*
X123583295Y-121005634D01*
X123583295Y-121005634D02*
X123583295Y-120719920D01*
X123583295Y-120719920D02*
X123488057Y-120529443D01*
X122249961Y-119577062D02*
X123583295Y-119577062D01*
X124249961Y-119577062D02*
X124154723Y-119672300D01*
X124154723Y-119672300D02*
X124059485Y-119577062D01*
X124059485Y-119577062D02*
X124154723Y-119481824D01*
X124154723Y-119481824D02*
X124249961Y-119577062D01*
X124249961Y-119577062D02*
X124059485Y-119577062D01*
X123583295Y-117767538D02*
X121964247Y-117767538D01*
X121964247Y-117767538D02*
X121773771Y-117862776D01*
X121773771Y-117862776D02*
X121678533Y-117958014D01*
X121678533Y-117958014D02*
X121583295Y-118148491D01*
X121583295Y-118148491D02*
X121583295Y-118434205D01*
X121583295Y-118434205D02*
X121678533Y-118624681D01*
X122345200Y-117767538D02*
X122249961Y-117958014D01*
X122249961Y-117958014D02*
X122249961Y-118338967D01*
X122249961Y-118338967D02*
X122345200Y-118529443D01*
X122345200Y-118529443D02*
X122440438Y-118624681D01*
X122440438Y-118624681D02*
X122630914Y-118719919D01*
X122630914Y-118719919D02*
X123202342Y-118719919D01*
X123202342Y-118719919D02*
X123392819Y-118624681D01*
X123392819Y-118624681D02*
X123488057Y-118529443D01*
X123488057Y-118529443D02*
X123583295Y-118338967D01*
X123583295Y-118338967D02*
X123583295Y-117958014D01*
X123583295Y-117958014D02*
X123488057Y-117767538D01*
X123583295Y-116815157D02*
X122249961Y-116815157D01*
X123392819Y-116815157D02*
X123488057Y-116719919D01*
X123488057Y-116719919D02*
X123583295Y-116529443D01*
X123583295Y-116529443D02*
X123583295Y-116243728D01*
X123583295Y-116243728D02*
X123488057Y-116053252D01*
X123488057Y-116053252D02*
X123297580Y-115958014D01*
X123297580Y-115958014D02*
X122249961Y-115958014D01*
X122249961Y-115005633D02*
X123583295Y-115005633D01*
X124249961Y-115005633D02*
X124154723Y-115100871D01*
X124154723Y-115100871D02*
X124059485Y-115005633D01*
X124059485Y-115005633D02*
X124154723Y-114910395D01*
X124154723Y-114910395D02*
X124249961Y-115005633D01*
X124249961Y-115005633D02*
X124059485Y-115005633D01*
X123583295Y-114053252D02*
X122249961Y-114053252D01*
X123392819Y-114053252D02*
X123488057Y-113958014D01*
X123488057Y-113958014D02*
X123583295Y-113767538D01*
X123583295Y-113767538D02*
X123583295Y-113481823D01*
X123583295Y-113481823D02*
X123488057Y-113291347D01*
X123488057Y-113291347D02*
X123297580Y-113196109D01*
X123297580Y-113196109D02*
X122249961Y-113196109D01*
X123583295Y-111386585D02*
X121964247Y-111386585D01*
X121964247Y-111386585D02*
X121773771Y-111481823D01*
X121773771Y-111481823D02*
X121678533Y-111577061D01*
X121678533Y-111577061D02*
X121583295Y-111767538D01*
X121583295Y-111767538D02*
X121583295Y-112053252D01*
X121583295Y-112053252D02*
X121678533Y-112243728D01*
X122345200Y-111386585D02*
X122249961Y-111577061D01*
X122249961Y-111577061D02*
X122249961Y-111958014D01*
X122249961Y-111958014D02*
X122345200Y-112148490D01*
X122345200Y-112148490D02*
X122440438Y-112243728D01*
X122440438Y-112243728D02*
X122630914Y-112338966D01*
X122630914Y-112338966D02*
X123202342Y-112338966D01*
X123202342Y-112338966D02*
X123392819Y-112243728D01*
X123392819Y-112243728D02*
X123488057Y-112148490D01*
X123488057Y-112148490D02*
X123583295Y-111958014D01*
X123583295Y-111958014D02*
X123583295Y-111577061D01*
X123583295Y-111577061D02*
X123488057Y-111386585D01*
X122249961Y-108910394D02*
X124249961Y-108910394D01*
X124249961Y-108910394D02*
X124249961Y-108148489D01*
X124249961Y-108148489D02*
X124154723Y-107958013D01*
X124154723Y-107958013D02*
X124059485Y-107862775D01*
X124059485Y-107862775D02*
X123869009Y-107767537D01*
X123869009Y-107767537D02*
X123583295Y-107767537D01*
X123583295Y-107767537D02*
X123392819Y-107862775D01*
X123392819Y-107862775D02*
X123297580Y-107958013D01*
X123297580Y-107958013D02*
X123202342Y-108148489D01*
X123202342Y-108148489D02*
X123202342Y-108910394D01*
X122440438Y-105767537D02*
X122345200Y-105862775D01*
X122345200Y-105862775D02*
X122249961Y-106148489D01*
X122249961Y-106148489D02*
X122249961Y-106338965D01*
X122249961Y-106338965D02*
X122345200Y-106624680D01*
X122345200Y-106624680D02*
X122535676Y-106815156D01*
X122535676Y-106815156D02*
X122726152Y-106910394D01*
X122726152Y-106910394D02*
X123107104Y-107005632D01*
X123107104Y-107005632D02*
X123392819Y-107005632D01*
X123392819Y-107005632D02*
X123773771Y-106910394D01*
X123773771Y-106910394D02*
X123964247Y-106815156D01*
X123964247Y-106815156D02*
X124154723Y-106624680D01*
X124154723Y-106624680D02*
X124249961Y-106338965D01*
X124249961Y-106338965D02*
X124249961Y-106148489D01*
X124249961Y-106148489D02*
X124154723Y-105862775D01*
X124154723Y-105862775D02*
X124059485Y-105767537D01*
X123297580Y-104243727D02*
X123202342Y-103958013D01*
X123202342Y-103958013D02*
X123107104Y-103862775D01*
X123107104Y-103862775D02*
X122916628Y-103767537D01*
X122916628Y-103767537D02*
X122630914Y-103767537D01*
X122630914Y-103767537D02*
X122440438Y-103862775D01*
X122440438Y-103862775D02*
X122345200Y-103958013D01*
X122345200Y-103958013D02*
X122249961Y-104148489D01*
X122249961Y-104148489D02*
X122249961Y-104910394D01*
X122249961Y-104910394D02*
X124249961Y-104910394D01*
X124249961Y-104910394D02*
X124249961Y-104243727D01*
X124249961Y-104243727D02*
X124154723Y-104053251D01*
X124154723Y-104053251D02*
X124059485Y-103958013D01*
X124059485Y-103958013D02*
X123869009Y-103862775D01*
X123869009Y-103862775D02*
X123678533Y-103862775D01*
X123678533Y-103862775D02*
X123488057Y-103958013D01*
X123488057Y-103958013D02*
X123392819Y-104053251D01*
X123392819Y-104053251D02*
X123297580Y-104243727D01*
X123297580Y-104243727D02*
X123297580Y-104910394D01*
X122345200Y-103005632D02*
X122249961Y-102815156D01*
X122249961Y-102815156D02*
X122249961Y-102434204D01*
X122249961Y-102434204D02*
X122345200Y-102243727D01*
X122345200Y-102243727D02*
X122535676Y-102148489D01*
X122535676Y-102148489D02*
X122630914Y-102148489D01*
X122630914Y-102148489D02*
X122821390Y-102243727D01*
X122821390Y-102243727D02*
X122916628Y-102434204D01*
X122916628Y-102434204D02*
X122916628Y-102719918D01*
X122916628Y-102719918D02*
X123011866Y-102910394D01*
X123011866Y-102910394D02*
X123202342Y-103005632D01*
X123202342Y-103005632D02*
X123297580Y-103005632D01*
X123297580Y-103005632D02*
X123488057Y-102910394D01*
X123488057Y-102910394D02*
X123583295Y-102719918D01*
X123583295Y-102719918D02*
X123583295Y-102434204D01*
X123583295Y-102434204D02*
X123488057Y-102243727D01*
X123583295Y-100053250D02*
X123583295Y-99291346D01*
X122249961Y-99767536D02*
X123964247Y-99767536D01*
X123964247Y-99767536D02*
X124154723Y-99672298D01*
X124154723Y-99672298D02*
X124249961Y-99481822D01*
X124249961Y-99481822D02*
X124249961Y-99291346D01*
X122249961Y-98338965D02*
X122345200Y-98529441D01*
X122345200Y-98529441D02*
X122440438Y-98624679D01*
X122440438Y-98624679D02*
X122630914Y-98719917D01*
X122630914Y-98719917D02*
X123202342Y-98719917D01*
X123202342Y-98719917D02*
X123392819Y-98624679D01*
X123392819Y-98624679D02*
X123488057Y-98529441D01*
X123488057Y-98529441D02*
X123583295Y-98338965D01*
X123583295Y-98338965D02*
X123583295Y-98053250D01*
X123583295Y-98053250D02*
X123488057Y-97862774D01*
X123488057Y-97862774D02*
X123392819Y-97767536D01*
X123392819Y-97767536D02*
X123202342Y-97672298D01*
X123202342Y-97672298D02*
X122630914Y-97672298D01*
X122630914Y-97672298D02*
X122440438Y-97767536D01*
X122440438Y-97767536D02*
X122345200Y-97862774D01*
X122345200Y-97862774D02*
X122249961Y-98053250D01*
X122249961Y-98053250D02*
X122249961Y-98338965D01*
X122249961Y-96815155D02*
X123583295Y-96815155D01*
X123202342Y-96815155D02*
X123392819Y-96719917D01*
X123392819Y-96719917D02*
X123488057Y-96624679D01*
X123488057Y-96624679D02*
X123583295Y-96434203D01*
X123583295Y-96434203D02*
X123583295Y-96243726D01*
X123583295Y-94338964D02*
X123583295Y-93577060D01*
X122249961Y-94053250D02*
X123964247Y-94053250D01*
X123964247Y-94053250D02*
X124154723Y-93958012D01*
X124154723Y-93958012D02*
X124249961Y-93767536D01*
X124249961Y-93767536D02*
X124249961Y-93577060D01*
X123583295Y-92053250D02*
X122249961Y-92053250D01*
X123583295Y-92910393D02*
X122535676Y-92910393D01*
X122535676Y-92910393D02*
X122345200Y-92815155D01*
X122345200Y-92815155D02*
X122249961Y-92624679D01*
X122249961Y-92624679D02*
X122249961Y-92338964D01*
X122249961Y-92338964D02*
X122345200Y-92148488D01*
X122345200Y-92148488D02*
X122440438Y-92053250D01*
X123583295Y-91100869D02*
X122249961Y-91100869D01*
X123392819Y-91100869D02*
X123488057Y-91005631D01*
X123488057Y-91005631D02*
X123583295Y-90815155D01*
X123583295Y-90815155D02*
X123583295Y-90529440D01*
X123583295Y-90529440D02*
X123488057Y-90338964D01*
X123488057Y-90338964D02*
X123297580Y-90243726D01*
X123297580Y-90243726D02*
X122249961Y-90243726D01*
D11*
G36*
X109584746Y-75476610D02*
G01*
X109541695Y-75519661D01*
X109498644Y-75476610D01*
X109541695Y-75433559D01*
X109584746Y-75476610D01*
G37*
G36*
X109756950Y-76079322D02*
G01*
X109713899Y-76122373D01*
X109670848Y-76079322D01*
X109713899Y-76036271D01*
X109756950Y-76079322D01*
G37*
G36*
X116731187Y-77198644D02*
G01*
X116688136Y-77241695D01*
X116645085Y-77198644D01*
X116688136Y-77155593D01*
X116731187Y-77198644D01*
G37*
G36*
X109652452Y-75819286D02*
G01*
X109642147Y-75921469D01*
X109616249Y-75934939D01*
X109584746Y-75864068D01*
X109590960Y-75818486D01*
X109642147Y-75806667D01*
X109652452Y-75819286D01*
G37*
G36*
X120500331Y-72634560D02*
G01*
X120586031Y-72748263D01*
X120584205Y-72800446D01*
X120483786Y-72850509D01*
X120416783Y-72832790D01*
X120347458Y-72714181D01*
X120397158Y-72620103D01*
X120500331Y-72634560D01*
G37*
G36*
X109555122Y-74979887D02*
G01*
X109570917Y-75050636D01*
X109558312Y-75238192D01*
X109554052Y-75252996D01*
X109527845Y-75265743D01*
X109515430Y-75132204D01*
X109515312Y-75111813D01*
X109526856Y-74977025D01*
X109555122Y-74979887D01*
G37*
G36*
X109557803Y-74162556D02*
G01*
X109573403Y-74282613D01*
X109559541Y-74506962D01*
X109548282Y-74549329D01*
X109528835Y-74524031D01*
X109520358Y-74357288D01*
X109521470Y-74266075D01*
X109534529Y-74142429D01*
X109557803Y-74162556D01*
G37*
G36*
X114704830Y-74969526D02*
G01*
X114880000Y-75112343D01*
X114896877Y-75127323D01*
X115104909Y-75322252D01*
X115183249Y-75416441D01*
X115140816Y-75410549D01*
X114986533Y-75305240D01*
X114729322Y-75101174D01*
X114637598Y-75011589D01*
X114578644Y-74910952D01*
X114596139Y-74904530D01*
X114704830Y-74969526D01*
G37*
G36*
X117228262Y-73287501D02*
G01*
X117343929Y-73482871D01*
X117389877Y-73574033D01*
X117467724Y-73759959D01*
X117481204Y-73851226D01*
X117472837Y-73853467D01*
X117403641Y-73779962D01*
X117304736Y-73606321D01*
X117267263Y-73528013D01*
X117185180Y-73325029D01*
X117173763Y-73239873D01*
X117228262Y-73287501D01*
G37*
G36*
X114753700Y-74474853D02*
G01*
X114936872Y-74692214D01*
X115190316Y-75046102D01*
X115205316Y-75068745D01*
X115221900Y-75117425D01*
X115140430Y-75050495D01*
X114974899Y-74878819D01*
X114972658Y-74876383D01*
X114782851Y-74656655D01*
X114659725Y-74487925D01*
X114629839Y-74406546D01*
X114646298Y-74400294D01*
X114753700Y-74474853D01*
G37*
G36*
X121091775Y-72322381D02*
G01*
X121058372Y-72488392D01*
X120991008Y-72691752D01*
X120913489Y-72863983D01*
X120849622Y-72936610D01*
X120830666Y-72933380D01*
X120777967Y-72846233D01*
X120787522Y-72790716D01*
X120848455Y-72629758D01*
X120938962Y-72448675D01*
X121027587Y-72307359D01*
X121082875Y-72265699D01*
X121091775Y-72322381D01*
G37*
G36*
X115246087Y-78036571D02*
G01*
X115332121Y-78168297D01*
X115447386Y-78382542D01*
X115508246Y-78510507D01*
X115559171Y-78646101D01*
X115540617Y-78662373D01*
X115537780Y-78659604D01*
X115435270Y-78522172D01*
X115316419Y-78317966D01*
X115283027Y-78253422D01*
X115204029Y-78092586D01*
X115188459Y-78028286D01*
X115222657Y-78016610D01*
X115246087Y-78036571D01*
G37*
G36*
X115020636Y-78322613D02*
G01*
X115161045Y-78440367D01*
X115336125Y-78616798D01*
X115508182Y-78811380D01*
X115639519Y-78983584D01*
X115692439Y-79092881D01*
X115692407Y-79094312D01*
X115636926Y-79078035D01*
X115495947Y-78960050D01*
X115299107Y-78765056D01*
X115107783Y-78550307D01*
X114983767Y-78382823D01*
X114955155Y-78300213D01*
X115020636Y-78322613D01*
G37*
G36*
X124810345Y-76466815D02*
G01*
X124881370Y-76478253D01*
X124899272Y-76536812D01*
X124863596Y-76681238D01*
X124773886Y-76950275D01*
X124740422Y-77062557D01*
X124678279Y-77395177D01*
X124668534Y-77685148D01*
X124675477Y-77803697D01*
X124658440Y-77975233D01*
X124608233Y-78017442D01*
X124537363Y-77908983D01*
X124510678Y-77797429D01*
X124489910Y-77528748D01*
X124492973Y-77206798D01*
X124518296Y-76902716D01*
X124564310Y-76687639D01*
X124655329Y-76538878D01*
X124779564Y-76466780D01*
X124810345Y-76466815D01*
G37*
G36*
X134746549Y-73391587D02*
G01*
X134715672Y-73463566D01*
X134571494Y-73582417D01*
X134348010Y-73725831D01*
X134079215Y-73871503D01*
X133799105Y-73997125D01*
X133721322Y-74025271D01*
X133399936Y-74107001D01*
X133110292Y-74137735D01*
X132995608Y-74131648D01*
X132954813Y-74108533D01*
X133030041Y-74059009D01*
X133236976Y-73973439D01*
X133591302Y-73842184D01*
X133804451Y-73762843D01*
X134133694Y-73632080D01*
X134384203Y-73522160D01*
X134514000Y-73450885D01*
X134589528Y-73404471D01*
X134733679Y-73383882D01*
X134746549Y-73391587D01*
G37*
G36*
X126226506Y-75089484D02*
G01*
X126350424Y-75180569D01*
X126513037Y-75425359D01*
X126706739Y-75812548D01*
X126683781Y-75850887D01*
X126551127Y-75840257D01*
X126524860Y-75834199D01*
X126425013Y-75839531D01*
X126331710Y-75917947D01*
X126220609Y-76098036D01*
X126067365Y-76408387D01*
X125907847Y-76784020D01*
X125748500Y-77231757D01*
X125635306Y-77629153D01*
X125599682Y-77783206D01*
X125523607Y-78104964D01*
X125471056Y-78301203D01*
X125430980Y-78402955D01*
X125392331Y-78441250D01*
X125344059Y-78447119D01*
X125286349Y-78414161D01*
X125248572Y-78251709D01*
X125264091Y-77980562D01*
X125325067Y-77631018D01*
X125423658Y-77233379D01*
X125552024Y-76817944D01*
X125702325Y-76415012D01*
X125866719Y-76054884D01*
X126037366Y-75767860D01*
X126140136Y-75575738D01*
X126152729Y-75308792D01*
X126138197Y-75140219D01*
X126220143Y-75089153D01*
X126226506Y-75089484D01*
G37*
G36*
X131275629Y-77676942D02*
G01*
X131476727Y-77769342D01*
X131590770Y-77990674D01*
X131626780Y-78355357D01*
X131629148Y-78437572D01*
X131658703Y-78628953D01*
X131711241Y-78705424D01*
X131793470Y-78646065D01*
X131849848Y-78474861D01*
X131858532Y-78254624D01*
X131809911Y-78049261D01*
X131745670Y-77889610D01*
X131712882Y-77762315D01*
X131764676Y-77711088D01*
X131894465Y-77739019D01*
X132043610Y-77826638D01*
X132153292Y-77949010D01*
X132221632Y-78177664D01*
X132239878Y-78510391D01*
X132200028Y-78844481D01*
X132105530Y-79097044D01*
X132017379Y-79214797D01*
X131893852Y-79304231D01*
X131829850Y-79243433D01*
X131844873Y-79036904D01*
X131873342Y-78877837D01*
X131849301Y-78806773D01*
X131744088Y-78834770D01*
X131735055Y-78838605D01*
X131510029Y-78908079D01*
X131278287Y-78943859D01*
X131097182Y-78941137D01*
X131024068Y-78895108D01*
X131059162Y-78851526D01*
X131196272Y-78852679D01*
X131246285Y-78863306D01*
X131344053Y-78832760D01*
X131368475Y-78672415D01*
X131368317Y-78655142D01*
X131327022Y-78492347D01*
X131190611Y-78447119D01*
X131068773Y-78433063D01*
X130846204Y-78357988D01*
X130711500Y-78230482D01*
X130684010Y-78048427D01*
X130770397Y-77867055D01*
X130949309Y-77727826D01*
X131199392Y-77672204D01*
X131275629Y-77676942D01*
G37*
G36*
X131956590Y-74933496D02*
G01*
X132080234Y-75006295D01*
X132219316Y-75220024D01*
X132329598Y-75529851D01*
X132403111Y-75893411D01*
X132431883Y-76268338D01*
X132407945Y-76612269D01*
X132323327Y-76882838D01*
X132297909Y-76923303D01*
X132168279Y-77034721D01*
X132027263Y-77074331D01*
X131928332Y-77037305D01*
X131924954Y-76918814D01*
X131975196Y-76749950D01*
X132025481Y-76509831D01*
X132048505Y-76347856D01*
X132030825Y-76322255D01*
X131954875Y-76438022D01*
X131812079Y-76618101D01*
X131614173Y-76803189D01*
X131512810Y-76877766D01*
X131398136Y-76923763D01*
X131339609Y-76860155D01*
X131275341Y-76792136D01*
X131093911Y-76775774D01*
X131015065Y-76788836D01*
X130994444Y-76778490D01*
X131131695Y-76718864D01*
X131302272Y-76608917D01*
X131373909Y-76465854D01*
X131322929Y-76345288D01*
X131147560Y-76294576D01*
X130979613Y-76276267D01*
X130760103Y-76205445D01*
X130674380Y-76144254D01*
X130593034Y-75975693D01*
X130654872Y-75800358D01*
X130851865Y-75665509D01*
X130923047Y-75636051D01*
X131075924Y-75540865D01*
X131101950Y-75464713D01*
X130986099Y-75433559D01*
X130933393Y-75426682D01*
X130808814Y-75347458D01*
X130803300Y-75308897D01*
X130890528Y-75267992D01*
X131057291Y-75266587D01*
X131246636Y-75302266D01*
X131401611Y-75372612D01*
X131453386Y-75424946D01*
X131545151Y-75642985D01*
X131601591Y-76011328D01*
X131613860Y-76135700D01*
X131651301Y-76375476D01*
X131702335Y-76483492D01*
X131777925Y-76489477D01*
X131782782Y-76487526D01*
X131853709Y-76414774D01*
X131878017Y-76251421D01*
X131861883Y-75958388D01*
X131839979Y-75700854D01*
X131840030Y-75583288D01*
X131869209Y-75600800D01*
X131933429Y-75734915D01*
X131988186Y-75843124D01*
X132039267Y-75889556D01*
X132047494Y-75802939D01*
X132012787Y-75603911D01*
X131935064Y-75313112D01*
X131892174Y-75166832D01*
X131854920Y-74997757D01*
X131875663Y-74932832D01*
X131956590Y-74933496D01*
G37*
G36*
X121118970Y-71025014D02*
G01*
X121600730Y-71086868D01*
X122025613Y-71205837D01*
X122570326Y-71439512D01*
X123171217Y-71772753D01*
X123720504Y-72151429D01*
X124159069Y-72538610D01*
X124573023Y-72970355D01*
X125839732Y-72867399D01*
X126548729Y-72813101D01*
X127714867Y-72742169D01*
X128730946Y-72707929D01*
X129608884Y-72711208D01*
X130360597Y-72752834D01*
X130998002Y-72833636D01*
X131533017Y-72954442D01*
X131977558Y-73116080D01*
X132343542Y-73319378D01*
X132655045Y-73530769D01*
X133238709Y-73265384D01*
X133551680Y-73127629D01*
X134251946Y-72861040D01*
X134825270Y-72709881D01*
X135271482Y-72674152D01*
X135590415Y-72753854D01*
X135781898Y-72948987D01*
X135845763Y-73259552D01*
X135800676Y-73565016D01*
X135605065Y-73921095D01*
X135246562Y-74248204D01*
X134944307Y-74417856D01*
X134502375Y-74584489D01*
X134028435Y-74700939D01*
X133597090Y-74744746D01*
X133401121Y-74754823D01*
X133316495Y-74804774D01*
X133324943Y-74921067D01*
X133335090Y-74956335D01*
X133379793Y-75031139D01*
X133476498Y-75063827D01*
X133664769Y-75060859D01*
X133984170Y-75028694D01*
X134507971Y-74983269D01*
X135089162Y-74977580D01*
X135520757Y-75034928D01*
X135800154Y-75154038D01*
X135924747Y-75333632D01*
X135891932Y-75572435D01*
X135699105Y-75869169D01*
X135637864Y-75937339D01*
X135253980Y-76219102D01*
X134787824Y-76362060D01*
X134260757Y-76362510D01*
X133694144Y-76216747D01*
X133262712Y-76052816D01*
X133262698Y-76453526D01*
X133262656Y-76462882D01*
X133238721Y-76764786D01*
X133172782Y-77217788D01*
X133067813Y-77807417D01*
X132926787Y-78519200D01*
X132752678Y-79338667D01*
X132548461Y-80251345D01*
X132317109Y-81242762D01*
X132061595Y-82298448D01*
X132034057Y-82412934D01*
X131920058Y-82928831D01*
X131798785Y-83531845D01*
X131683099Y-84156085D01*
X131585862Y-84735661D01*
X131536952Y-85039565D01*
X131459268Y-85489164D01*
X131387660Y-85866154D01*
X131328447Y-86137948D01*
X131287948Y-86271956D01*
X131152190Y-86392342D01*
X130865985Y-86507144D01*
X130464436Y-86599496D01*
X129976989Y-86664311D01*
X129433091Y-86696504D01*
X128862186Y-86690988D01*
X128456237Y-86665530D01*
X127846167Y-86583384D01*
X127346148Y-86436760D01*
X126923764Y-86205722D01*
X126546598Y-85870336D01*
X126182232Y-85410667D01*
X125798249Y-84806778D01*
X125699988Y-84637140D01*
X125669223Y-84584027D01*
X125324358Y-83907397D01*
X125085841Y-83270891D01*
X124935591Y-82618658D01*
X124855526Y-81894845D01*
X124800616Y-81056958D01*
X124451829Y-80929787D01*
X124421062Y-80918624D01*
X124258406Y-80867572D01*
X124115796Y-80854909D01*
X123948965Y-80888714D01*
X123908957Y-80903736D01*
X123713648Y-80977067D01*
X123687528Y-80988397D01*
X123365578Y-81128047D01*
X123129114Y-81229929D01*
X122482064Y-81474595D01*
X121910745Y-81627926D01*
X121369398Y-81700202D01*
X120812264Y-81701705D01*
X120696044Y-81694420D01*
X120605961Y-81688774D01*
X120336570Y-81658255D01*
X120090084Y-81603101D01*
X119832512Y-81510313D01*
X119529865Y-81366895D01*
X119148154Y-81159850D01*
X119055933Y-81106976D01*
X118719785Y-80914248D01*
X118653389Y-80876180D01*
X118582373Y-80838029D01*
X118353718Y-80715191D01*
X118183318Y-80642712D01*
X118539322Y-80642712D01*
X118582373Y-80685763D01*
X118613876Y-80654260D01*
X118985061Y-80654260D01*
X119055933Y-80685763D01*
X119101515Y-80679549D01*
X119113334Y-80628362D01*
X119100714Y-80618057D01*
X118998531Y-80628362D01*
X118985061Y-80654260D01*
X118613876Y-80654260D01*
X118625424Y-80642712D01*
X118582373Y-80599661D01*
X118539322Y-80642712D01*
X118183318Y-80642712D01*
X118029507Y-80577289D01*
X119238885Y-80577289D01*
X119339477Y-80551075D01*
X119419830Y-80508135D01*
X119445669Y-80444086D01*
X119404167Y-80434865D01*
X119291277Y-80502875D01*
X119280152Y-80514215D01*
X119238885Y-80577289D01*
X118029507Y-80577289D01*
X117985688Y-80558651D01*
X117559067Y-80425425D01*
X117017457Y-80295494D01*
X116967041Y-80284474D01*
X116358421Y-80150090D01*
X115789330Y-80022088D01*
X115285530Y-79906448D01*
X114872782Y-79809147D01*
X114576850Y-79736165D01*
X114423495Y-79693481D01*
X114376069Y-79685385D01*
X114364376Y-79740239D01*
X114387157Y-79798799D01*
X114324381Y-79866155D01*
X114128790Y-79865084D01*
X113930196Y-79821697D01*
X113816710Y-79796903D01*
X113404465Y-79662925D01*
X113240634Y-79603834D01*
X112932829Y-79496338D01*
X112706154Y-79421999D01*
X112600752Y-79394237D01*
X112558639Y-79453037D01*
X112496102Y-79640191D01*
X112477271Y-79720938D01*
X112432911Y-79911153D01*
X112382102Y-80126631D01*
X112211873Y-80531240D01*
X111961849Y-80797689D01*
X111619550Y-80941789D01*
X111308222Y-80981794D01*
X111091526Y-80961560D01*
X110828950Y-80937043D01*
X110387882Y-80777617D01*
X110025519Y-80520271D01*
X109782359Y-80181758D01*
X109729263Y-79968170D01*
X109695418Y-79616028D01*
X109682563Y-79191739D01*
X109858296Y-79191739D01*
X109879229Y-79385413D01*
X109922495Y-79566441D01*
X109948342Y-79595630D01*
X109978921Y-79479792D01*
X110007946Y-79208686D01*
X110034089Y-78791526D01*
X110047539Y-78546873D01*
X110081479Y-78091803D01*
X110117124Y-77784301D01*
X110151065Y-77628305D01*
X110179895Y-77627748D01*
X110200205Y-77786566D01*
X110208588Y-78108694D01*
X110201635Y-78598068D01*
X110201198Y-78614151D01*
X110194051Y-79276725D01*
X110218098Y-79789349D01*
X110281490Y-80172315D01*
X110392378Y-80445915D01*
X110558913Y-80630439D01*
X110789245Y-80746180D01*
X111091526Y-80813429D01*
X111460766Y-80799198D01*
X111787424Y-80650717D01*
X112039285Y-80395409D01*
X112201832Y-80063427D01*
X112260547Y-79684926D01*
X112230309Y-79484709D01*
X112200912Y-79290061D01*
X112121643Y-79133140D01*
X112097147Y-79084648D01*
X112348662Y-79084648D01*
X112426102Y-79222034D01*
X112477271Y-79282594D01*
X112510885Y-79248641D01*
X112507965Y-79218626D01*
X112426102Y-79092881D01*
X112377828Y-79066344D01*
X112348662Y-79084648D01*
X112097147Y-79084648D01*
X112008410Y-78908984D01*
X111779027Y-78624390D01*
X111545066Y-78419482D01*
X111927293Y-78419482D01*
X112035906Y-78581340D01*
X112121643Y-78668353D01*
X112165059Y-78651390D01*
X112146101Y-78582191D01*
X112038644Y-78447119D01*
X111930468Y-78374071D01*
X111927293Y-78419482D01*
X111545066Y-78419482D01*
X111319621Y-78222032D01*
X110786020Y-77955417D01*
X110621272Y-77889757D01*
X110467889Y-77807730D01*
X111087392Y-77807730D01*
X111164989Y-77911159D01*
X111375966Y-78031690D01*
X111737289Y-78181147D01*
X111963640Y-78267359D01*
X112145725Y-78332285D01*
X112230309Y-78345353D01*
X112254123Y-78310018D01*
X112253899Y-78229733D01*
X112252541Y-78213361D01*
X112149871Y-78084664D01*
X112108433Y-78065028D01*
X111899205Y-77965884D01*
X111522034Y-77867653D01*
X111326072Y-77809054D01*
X111209916Y-77735573D01*
X111182375Y-77706277D01*
X111103237Y-77739357D01*
X111087392Y-77807730D01*
X110467889Y-77807730D01*
X110438745Y-77792144D01*
X110357227Y-77715848D01*
X110393898Y-77680395D01*
X110565939Y-77705308D01*
X110711658Y-77717749D01*
X110822228Y-77626751D01*
X110835133Y-77601991D01*
X111857745Y-77601991D01*
X111959918Y-77706170D01*
X112015639Y-77726688D01*
X112108433Y-77737255D01*
X112131517Y-77652552D01*
X112104768Y-77435424D01*
X112070261Y-77295673D01*
X112038644Y-77239049D01*
X112001684Y-77172856D01*
X111937725Y-77158491D01*
X111909492Y-77277704D01*
X111906122Y-77331315D01*
X111861493Y-77524898D01*
X111857745Y-77601991D01*
X110835133Y-77601991D01*
X110837248Y-77597932D01*
X110965959Y-77526871D01*
X111227401Y-77519737D01*
X111582562Y-77543051D01*
X111734888Y-76983390D01*
X111815959Y-76697704D01*
X111906676Y-76402517D01*
X111975294Y-76205439D01*
X112019220Y-76024637D01*
X111977250Y-75902861D01*
X112167797Y-75902861D01*
X112201915Y-75957345D01*
X112222393Y-76026630D01*
X112254654Y-76226411D01*
X112287197Y-76504243D01*
X112319327Y-76733820D01*
X112374983Y-76962804D01*
X112434496Y-77074680D01*
X112481195Y-77145352D01*
X112472565Y-77317047D01*
X112453611Y-77433898D01*
X112515984Y-77500000D01*
X112518584Y-77500046D01*
X112579290Y-77574162D01*
X112562195Y-77794642D01*
X112561639Y-77797627D01*
X112547713Y-78024270D01*
X112598305Y-78145763D01*
X112598909Y-78146141D01*
X112649073Y-78267917D01*
X112635469Y-78491272D01*
X112624698Y-78567199D01*
X112631719Y-78849938D01*
X112695830Y-79117320D01*
X112800166Y-79317104D01*
X112927864Y-79397048D01*
X113027438Y-79412355D01*
X113260591Y-79472781D01*
X113544260Y-79562914D01*
X113666282Y-79603175D01*
X113930196Y-79663022D01*
X114059171Y-79627135D01*
X114065141Y-79485957D01*
X113960039Y-79229931D01*
X113917361Y-79131721D01*
X113807480Y-78749850D01*
X113724909Y-78270886D01*
X113675557Y-77750017D01*
X113665335Y-77242431D01*
X113681861Y-77034017D01*
X113825553Y-77034017D01*
X113842533Y-77407656D01*
X113874692Y-77822757D01*
X113918931Y-78242619D01*
X113972154Y-78630536D01*
X114031263Y-78949806D01*
X114093160Y-79163723D01*
X114132770Y-79259085D01*
X114178191Y-79344177D01*
X114245282Y-79414523D01*
X114354946Y-79477645D01*
X114528083Y-79541060D01*
X114785595Y-79612287D01*
X115148385Y-79698847D01*
X115637355Y-79808259D01*
X116273406Y-79948041D01*
X116602553Y-80018066D01*
X117045158Y-80104455D01*
X117413951Y-80167234D01*
X117677636Y-80201228D01*
X117804918Y-80201264D01*
X117940070Y-80205337D01*
X118121185Y-80309388D01*
X118144608Y-80329305D01*
X118374264Y-80435478D01*
X118719785Y-80464239D01*
X118861506Y-80459205D01*
X119082670Y-80437218D01*
X119192875Y-80405318D01*
X119198713Y-80380274D01*
X119146439Y-80248057D01*
X119020319Y-80057404D01*
X119015297Y-80050778D01*
X119006737Y-80036847D01*
X118804414Y-79707580D01*
X118739932Y-79569070D01*
X119024603Y-79569070D01*
X119027103Y-79634266D01*
X119106023Y-79776762D01*
X119135520Y-79814535D01*
X119212800Y-79872194D01*
X119219597Y-79808194D01*
X119145397Y-79655036D01*
X119096511Y-79593938D01*
X119024603Y-79569070D01*
X118739932Y-79569070D01*
X118599474Y-79267362D01*
X118572905Y-79194296D01*
X118836645Y-79194296D01*
X118924699Y-79306409D01*
X119006737Y-79358467D01*
X119055933Y-79323760D01*
X119051391Y-79292572D01*
X118977558Y-79193499D01*
X118964102Y-79175443D01*
X118900950Y-79153390D01*
X118863766Y-79140405D01*
X118836645Y-79194296D01*
X118572905Y-79194296D01*
X118430178Y-78801794D01*
X118390588Y-78642123D01*
X118625424Y-78642123D01*
X118653072Y-78745441D01*
X118765990Y-78895217D01*
X118900950Y-78963729D01*
X118942556Y-78953191D01*
X118972327Y-78862262D01*
X118917668Y-78729809D01*
X118814848Y-78635172D01*
X118797628Y-78619322D01*
X118789732Y-78615130D01*
X118660351Y-78571315D01*
X118625424Y-78642123D01*
X118390588Y-78642123D01*
X118326226Y-78382542D01*
X118307263Y-78284880D01*
X118247784Y-78092902D01*
X118224862Y-78063966D01*
X118542187Y-78063966D01*
X118566388Y-78201195D01*
X118672078Y-78373487D01*
X118814848Y-78447119D01*
X118875308Y-78417840D01*
X118853018Y-78293075D01*
X118714390Y-78090725D01*
X118625424Y-77989795D01*
X118601313Y-77962442D01*
X118552441Y-77951367D01*
X118542187Y-78063966D01*
X118224862Y-78063966D01*
X118187348Y-78016610D01*
X118168740Y-78015844D01*
X118132539Y-78016952D01*
X118118271Y-78049892D01*
X118128035Y-78149083D01*
X118163933Y-78348945D01*
X118228065Y-78683898D01*
X118237928Y-78737087D01*
X118280653Y-79026774D01*
X118292180Y-79230905D01*
X118269749Y-79308136D01*
X118229978Y-79295251D01*
X118158151Y-79217549D01*
X118104953Y-79159999D01*
X117956800Y-78902522D01*
X117801976Y-78554038D01*
X117672961Y-78190859D01*
X117656941Y-78145763D01*
X117643535Y-78103617D01*
X117544809Y-77827419D01*
X117474849Y-77698065D01*
X117463051Y-77707248D01*
X117439040Y-77725936D01*
X117443479Y-77850011D01*
X117494524Y-78104558D01*
X117583667Y-78400473D01*
X117615010Y-78491015D01*
X117683860Y-78717308D01*
X117688307Y-78809800D01*
X117630686Y-78787734D01*
X117607824Y-78761998D01*
X117515179Y-78590337D01*
X117402745Y-78313826D01*
X117305198Y-78023929D01*
X117289921Y-77978528D01*
X117255760Y-77869018D01*
X117188865Y-77672204D01*
X117690863Y-77672204D01*
X117696390Y-77740212D01*
X117742745Y-77952125D01*
X117822882Y-78218045D01*
X117920645Y-78494037D01*
X118019880Y-78736166D01*
X118104433Y-78900496D01*
X118158151Y-78943093D01*
X118164974Y-78931195D01*
X118164045Y-78795135D01*
X118121074Y-78568775D01*
X118111768Y-78534294D01*
X118051335Y-78310375D01*
X117970106Y-78078199D01*
X117892660Y-77930509D01*
X117835036Y-77851066D01*
X117739389Y-77672204D01*
X117736391Y-77664077D01*
X117699162Y-77586152D01*
X117690863Y-77672204D01*
X117188865Y-77672204D01*
X117143721Y-77539384D01*
X117109518Y-77451868D01*
X118022712Y-77451868D01*
X118042164Y-77596569D01*
X118108814Y-77715254D01*
X118111768Y-77716953D01*
X118171597Y-77677207D01*
X118172275Y-77672204D01*
X118453221Y-77672204D01*
X118481522Y-77783524D01*
X118625424Y-77844407D01*
X118725369Y-77831532D01*
X118797628Y-77775526D01*
X118764550Y-77690870D01*
X118646404Y-77562024D01*
X118582373Y-77530074D01*
X118522102Y-77500000D01*
X118482124Y-77532188D01*
X118453221Y-77672204D01*
X118172275Y-77672204D01*
X118194916Y-77505082D01*
X118194882Y-77497665D01*
X118168817Y-77316629D01*
X118116760Y-77251618D01*
X118108814Y-77241695D01*
X118052834Y-77292503D01*
X118022712Y-77451868D01*
X117109518Y-77451868D01*
X117077853Y-77370848D01*
X117420000Y-77370848D01*
X117463051Y-77413898D01*
X117506102Y-77370848D01*
X117463051Y-77327797D01*
X117420000Y-77370848D01*
X117077853Y-77370848D01*
X117041479Y-77277778D01*
X116967639Y-77133017D01*
X116889011Y-77081148D01*
X117559019Y-77081148D01*
X117589456Y-77282825D01*
X117626405Y-77375901D01*
X117672961Y-77395652D01*
X117750886Y-77266960D01*
X117832088Y-77096010D01*
X117830189Y-77005022D01*
X117726438Y-76983390D01*
X117657761Y-76990226D01*
X117559019Y-77081148D01*
X116889011Y-77081148D01*
X116866840Y-77066522D01*
X116619647Y-76965710D01*
X116408384Y-76897288D01*
X117247797Y-76897288D01*
X117254011Y-76942870D01*
X117305198Y-76954689D01*
X117315503Y-76942070D01*
X117305198Y-76839887D01*
X117279300Y-76826417D01*
X117247797Y-76897288D01*
X116408384Y-76897288D01*
X116262579Y-76850066D01*
X115827119Y-76730696D01*
X115426279Y-76627669D01*
X114997528Y-76514320D01*
X114634160Y-76415049D01*
X114387054Y-76343534D01*
X114242847Y-76304313D01*
X114036419Y-76271015D01*
X113936557Y-76288630D01*
X113982624Y-76331649D01*
X114164135Y-76411385D01*
X114452694Y-76512935D01*
X114816961Y-76624348D01*
X114920535Y-76654070D01*
X115487541Y-76817339D01*
X115909399Y-76940333D01*
X116203875Y-77028723D01*
X116388737Y-77088175D01*
X116481754Y-77124359D01*
X116500692Y-77142943D01*
X116463320Y-77149596D01*
X116434157Y-77147385D01*
X116253601Y-77111781D01*
X115953628Y-77039449D01*
X115568044Y-76938796D01*
X115130655Y-76818227D01*
X114958158Y-76770109D01*
X114547863Y-76660989D01*
X114208914Y-76578354D01*
X113972601Y-76529556D01*
X113870217Y-76521953D01*
X113849519Y-76557947D01*
X113826849Y-76738547D01*
X113825553Y-77034017D01*
X113681861Y-77034017D01*
X113700155Y-76803315D01*
X113740058Y-76531780D01*
X113766968Y-76324244D01*
X113772756Y-76240933D01*
X113743577Y-76232572D01*
X113655567Y-76211793D01*
X113581079Y-76194207D01*
X113308838Y-76132952D01*
X112964238Y-76057297D01*
X112759731Y-76013489D01*
X112455248Y-75951031D01*
X112245752Y-75911793D01*
X112167797Y-75902861D01*
X111977250Y-75902861D01*
X111955415Y-75839506D01*
X111919941Y-75795686D01*
X111866441Y-75764766D01*
X111780327Y-75714998D01*
X111751497Y-75698336D01*
X111634407Y-75745797D01*
X111586089Y-75765382D01*
X111442269Y-75991335D01*
X111326571Y-76179665D01*
X111106297Y-76402999D01*
X110855658Y-76571652D01*
X110633342Y-76638661D01*
X110553926Y-76657557D01*
X110398922Y-76759626D01*
X110389246Y-76769447D01*
X110346502Y-76836502D01*
X110418913Y-76854758D01*
X110633507Y-76832623D01*
X110767309Y-76817899D01*
X110916803Y-76825370D01*
X110927422Y-76884183D01*
X110881279Y-76931059D01*
X110720512Y-76984708D01*
X110629654Y-76999961D01*
X110690724Y-77059423D01*
X110713416Y-77075768D01*
X110718011Y-77136685D01*
X110563738Y-77193756D01*
X110390567Y-77214420D01*
X110326232Y-77180920D01*
X110290076Y-77162093D01*
X110278302Y-77136568D01*
X110175201Y-77069492D01*
X110149683Y-77074150D01*
X110139862Y-77148239D01*
X110150908Y-77173785D01*
X110108366Y-77255867D01*
X110083275Y-77294812D01*
X110034548Y-77473584D01*
X109982770Y-77761755D01*
X109935626Y-78120844D01*
X109933040Y-78144245D01*
X109884846Y-78610215D01*
X109860050Y-78946360D01*
X109858296Y-79191739D01*
X109682563Y-79191739D01*
X109681836Y-79167752D01*
X109687422Y-78661253D01*
X109711084Y-78134438D01*
X109751729Y-77625216D01*
X109808262Y-77171496D01*
X109879589Y-76811187D01*
X109893988Y-76742331D01*
X109877213Y-76624650D01*
X109767698Y-76518536D01*
X109532868Y-76383837D01*
X109525562Y-76379972D01*
X109237060Y-76182812D01*
X109035341Y-75926746D01*
X108899616Y-75574588D01*
X108809098Y-75089153D01*
X108778075Y-74846782D01*
X109091736Y-74846782D01*
X109105282Y-75123833D01*
X109139845Y-75350087D01*
X109201844Y-75575821D01*
X109297698Y-75851311D01*
X109348435Y-75977516D01*
X109499745Y-76206814D01*
X109721603Y-76346395D01*
X109885228Y-76406281D01*
X110326232Y-76473400D01*
X110701437Y-76387484D01*
X110996530Y-76158030D01*
X111197196Y-75794534D01*
X111268184Y-75417644D01*
X112094110Y-75417644D01*
X112103263Y-75558124D01*
X112147590Y-75656474D01*
X112153319Y-75662748D01*
X112276576Y-75719758D01*
X112512495Y-75792512D01*
X112814716Y-75870461D01*
X113136876Y-75943057D01*
X113432614Y-75999749D01*
X113655567Y-76029988D01*
X113759374Y-76023226D01*
X113758498Y-75958339D01*
X113708531Y-75771962D01*
X113616865Y-75514529D01*
X113521663Y-75178046D01*
X113444282Y-74703421D01*
X113396130Y-74167855D01*
X113380461Y-73628238D01*
X113392870Y-73327225D01*
X113631134Y-73327225D01*
X113651138Y-73770256D01*
X113691810Y-74253568D01*
X113749835Y-74741030D01*
X113821896Y-75196508D01*
X113904676Y-75583869D01*
X113994859Y-75866981D01*
X114039332Y-75965216D01*
X114122013Y-76087102D01*
X114249348Y-76172864D01*
X114462656Y-76246209D01*
X114803254Y-76330847D01*
X115212747Y-76431220D01*
X115699569Y-76557613D01*
X116128475Y-76675507D01*
X116491915Y-76772372D01*
X116784445Y-76823575D01*
X116962714Y-76806238D01*
X117051504Y-76717159D01*
X117075594Y-76553137D01*
X117076466Y-76509686D01*
X117102288Y-76257629D01*
X117154802Y-75973233D01*
X117221626Y-75707251D01*
X117290382Y-75510442D01*
X117348687Y-75433559D01*
X117382661Y-75498398D01*
X117410179Y-75692878D01*
X117421176Y-75971695D01*
X117421412Y-76023780D01*
X117437491Y-76439272D01*
X117483063Y-76708539D01*
X117564544Y-76853805D01*
X117688348Y-76897288D01*
X117700543Y-76897075D01*
X117768844Y-76877502D01*
X117813988Y-76804995D01*
X117841781Y-76649737D01*
X117858027Y-76381909D01*
X117868529Y-75971695D01*
X117886549Y-75046102D01*
X117911414Y-75907119D01*
X117919371Y-76136287D01*
X117937783Y-76503298D01*
X117959434Y-76794562D01*
X117981136Y-76961865D01*
X118046779Y-77128792D01*
X118116760Y-77142600D01*
X118133103Y-77106033D01*
X118453221Y-77106033D01*
X118481529Y-77243569D01*
X118582373Y-77358933D01*
X118679612Y-77352077D01*
X118711526Y-77205154D01*
X118683218Y-77067618D01*
X118639774Y-77017919D01*
X118582373Y-76952253D01*
X118485134Y-76959109D01*
X118453221Y-77106033D01*
X118133103Y-77106033D01*
X118172297Y-77018335D01*
X118194916Y-76772374D01*
X118197211Y-76670268D01*
X118212540Y-76527989D01*
X118453221Y-76527989D01*
X118453222Y-76529190D01*
X118502536Y-76736976D01*
X118639774Y-76811187D01*
X118652306Y-76810265D01*
X118709726Y-76738682D01*
X118682609Y-76601357D01*
X118582373Y-76466780D01*
X118575198Y-76460964D01*
X118562429Y-76450614D01*
X118474026Y-76413633D01*
X118453221Y-76527989D01*
X118212540Y-76527989D01*
X118243096Y-76244386D01*
X118480908Y-76244386D01*
X118575198Y-76294576D01*
X118642201Y-76276858D01*
X118711526Y-76158249D01*
X118697111Y-76093477D01*
X118648238Y-76072625D01*
X118609280Y-76056003D01*
X118495944Y-76141115D01*
X118480908Y-76244386D01*
X118243096Y-76244386D01*
X118247457Y-76203910D01*
X118337610Y-75753543D01*
X118538418Y-75753543D01*
X118594383Y-75890428D01*
X118648238Y-75918669D01*
X118749962Y-75870766D01*
X118797628Y-75729834D01*
X118782685Y-75672080D01*
X118695139Y-75621246D01*
X118668475Y-75605763D01*
X118589878Y-75633900D01*
X118538418Y-75753543D01*
X118337610Y-75753543D01*
X118352023Y-75681544D01*
X118434316Y-75383007D01*
X118638745Y-75383007D01*
X118695139Y-75433559D01*
X118743544Y-75415641D01*
X118831525Y-75297212D01*
X118846371Y-75221867D01*
X118818213Y-75210183D01*
X118781542Y-75194966D01*
X118774112Y-75197636D01*
X118673883Y-75280027D01*
X118638745Y-75383007D01*
X118434316Y-75383007D01*
X118495736Y-75160194D01*
X118596757Y-74881074D01*
X118804425Y-74881074D01*
X118818213Y-74965707D01*
X118856445Y-74933093D01*
X118870201Y-74883303D01*
X118849647Y-74768065D01*
X118820255Y-74769398D01*
X118804425Y-74881074D01*
X118596757Y-74881074D01*
X118663420Y-74696883D01*
X118839902Y-74348635D01*
X118851836Y-74329960D01*
X118902779Y-74212369D01*
X118848339Y-74127612D01*
X118661437Y-74026865D01*
X118571623Y-73979780D01*
X118256067Y-73707545D01*
X118110555Y-73399903D01*
X118367119Y-73399903D01*
X118390400Y-73458557D01*
X118509777Y-73606940D01*
X118683275Y-73775079D01*
X118857124Y-73912776D01*
X118977558Y-73969831D01*
X119017068Y-73968047D01*
X119047808Y-73948305D01*
X119013318Y-73920950D01*
X118879785Y-73803612D01*
X118689051Y-73630059D01*
X118566200Y-73521894D01*
X118422942Y-73414007D01*
X118367119Y-73399903D01*
X118110555Y-73399903D01*
X118080433Y-73336218D01*
X118046731Y-72869587D01*
X118069765Y-72558080D01*
X118292110Y-72558080D01*
X118338569Y-72841109D01*
X118531666Y-73170682D01*
X118841795Y-73541311D01*
X119157713Y-73774181D01*
X119484021Y-73848162D01*
X119844106Y-73768237D01*
X120261356Y-73539394D01*
X120372636Y-73468052D01*
X120671411Y-73317127D01*
X120870338Y-73295586D01*
X120978081Y-73401764D01*
X121025847Y-73452598D01*
X121206630Y-73541861D01*
X121465090Y-73617018D01*
X121769295Y-73676185D01*
X122045824Y-73706044D01*
X122196249Y-73679805D01*
X122241695Y-73596922D01*
X122244641Y-73571652D01*
X122308671Y-73480150D01*
X122477693Y-73368051D01*
X122779831Y-73215420D01*
X122797987Y-73210292D01*
X122844407Y-73271068D01*
X122843036Y-73280772D01*
X122759439Y-73385116D01*
X122586102Y-73509968D01*
X122511629Y-73555610D01*
X122357136Y-73681504D01*
X122361371Y-73767811D01*
X122521526Y-73828374D01*
X122542660Y-73834031D01*
X122513330Y-73844535D01*
X122346736Y-73841429D01*
X122069492Y-73824914D01*
X122068311Y-73824830D01*
X121699675Y-73786700D01*
X121353531Y-73731236D01*
X121104671Y-73670415D01*
X120926588Y-73619617D01*
X120765094Y-73616082D01*
X120575252Y-73675732D01*
X120296097Y-73809015D01*
X120055715Y-73919862D01*
X119791137Y-74018098D01*
X119614003Y-74055932D01*
X119529505Y-74064040D01*
X119329006Y-74178735D01*
X119246489Y-74400339D01*
X119231685Y-74529827D01*
X119192968Y-74780929D01*
X119139570Y-75089153D01*
X119123949Y-75186776D01*
X119083828Y-75659388D01*
X119072601Y-76301405D01*
X119090272Y-77112542D01*
X119125940Y-77922347D01*
X119174464Y-78618802D01*
X119238750Y-79177143D01*
X119323203Y-79614733D01*
X119432228Y-79948936D01*
X119570228Y-80197114D01*
X119741608Y-80376630D01*
X119950773Y-80504847D01*
X120431335Y-80687446D01*
X121157777Y-80811766D01*
X121942179Y-80777057D01*
X121976590Y-80772322D01*
X122326601Y-80729369D01*
X122631653Y-80700315D01*
X122829112Y-80691221D01*
X122865196Y-80692392D01*
X122992898Y-80709973D01*
X122975791Y-80741650D01*
X122836407Y-80782191D01*
X122597281Y-80826363D01*
X122280946Y-80868934D01*
X121909936Y-80904670D01*
X121685919Y-80923234D01*
X121391942Y-80956097D01*
X121221104Y-80995115D01*
X121141786Y-81049228D01*
X121122373Y-81127377D01*
X121116977Y-81179086D01*
X121038945Y-81277224D01*
X120919341Y-81259853D01*
X120824438Y-81127048D01*
X120800165Y-81076793D01*
X120653921Y-80974097D01*
X120366602Y-80908651D01*
X120255631Y-80890253D01*
X119966524Y-80819658D01*
X119753878Y-80737534D01*
X119608357Y-80684816D01*
X119386072Y-80674040D01*
X119238885Y-80710734D01*
X119212800Y-80717237D01*
X119187088Y-80723647D01*
X119060784Y-80818933D01*
X119056535Y-80945194D01*
X119106754Y-81006540D01*
X119313402Y-81148938D01*
X119625045Y-81299299D01*
X119999266Y-81438516D01*
X120393649Y-81547483D01*
X120696044Y-81589001D01*
X121294792Y-81562337D01*
X121996166Y-81416184D01*
X122788636Y-81152444D01*
X122998972Y-81069844D01*
X123310562Y-80941554D01*
X123537926Y-80840266D01*
X123642540Y-80782662D01*
X123647959Y-80741678D01*
X123604554Y-80569496D01*
X123505347Y-80303374D01*
X123706743Y-80303374D01*
X123708397Y-80323942D01*
X123757922Y-80458967D01*
X123840799Y-80573267D01*
X123908957Y-80597032D01*
X123906457Y-80531836D01*
X123827537Y-80389340D01*
X123746568Y-80298851D01*
X123706743Y-80303374D01*
X123505347Y-80303374D01*
X123504722Y-80301697D01*
X123361461Y-79975602D01*
X123326720Y-79893709D01*
X123489720Y-79893709D01*
X123574423Y-80046286D01*
X123625704Y-80111688D01*
X123687528Y-80157177D01*
X123702686Y-80066607D01*
X123692855Y-79990450D01*
X123613594Y-79864256D01*
X123571259Y-79849225D01*
X123513419Y-79828689D01*
X123489720Y-79893709D01*
X123326720Y-79893709D01*
X123172705Y-79530655D01*
X123153140Y-79462934D01*
X123294913Y-79462934D01*
X123397028Y-79614425D01*
X123488761Y-79710212D01*
X123571259Y-79729307D01*
X123577476Y-79722322D01*
X123590215Y-79596844D01*
X123514393Y-79459087D01*
X123394856Y-79394237D01*
X123370501Y-79396686D01*
X123298484Y-79403928D01*
X123294913Y-79462934D01*
X123153140Y-79462934D01*
X123027733Y-79028866D01*
X123190825Y-79028866D01*
X123246215Y-79164633D01*
X123370501Y-79230919D01*
X123455510Y-79158854D01*
X123465485Y-78963729D01*
X123404329Y-78781002D01*
X123308883Y-78705966D01*
X123308194Y-78705424D01*
X123258020Y-78728009D01*
X123198394Y-78856406D01*
X123190825Y-79028866D01*
X123027733Y-79028866D01*
X122899682Y-78585644D01*
X122853968Y-78188957D01*
X123034870Y-78188957D01*
X123074551Y-78375211D01*
X123080867Y-78393916D01*
X123175132Y-78515205D01*
X123308883Y-78600267D01*
X123408789Y-78599823D01*
X123412195Y-78518879D01*
X123386428Y-78339492D01*
X123325581Y-78179093D01*
X123188814Y-78107935D01*
X123178776Y-78102712D01*
X123066597Y-78115342D01*
X123034870Y-78188957D01*
X122853968Y-78188957D01*
X122799378Y-77715254D01*
X123016611Y-77715254D01*
X123022240Y-77851299D01*
X123070128Y-77982900D01*
X123188814Y-78016610D01*
X123228644Y-78014768D01*
X123312548Y-77973559D01*
X123545410Y-77973559D01*
X123547218Y-77988848D01*
X123564331Y-78144320D01*
X123593045Y-78412039D01*
X123628244Y-78744379D01*
X123652483Y-78943721D01*
X123735086Y-79424199D01*
X123842346Y-79869185D01*
X123962292Y-80233233D01*
X124082956Y-80470892D01*
X124145479Y-80527527D01*
X124345718Y-80643577D01*
X124609492Y-80755097D01*
X125040000Y-80908581D01*
X125093388Y-81679714D01*
X125096964Y-81729851D01*
X125181034Y-82470192D01*
X125322635Y-83106919D01*
X125534726Y-83699322D01*
X125699988Y-84086780D01*
X125817570Y-83747352D01*
X125823003Y-83731788D01*
X126019498Y-83308708D01*
X126289672Y-83000204D01*
X126680408Y-82752204D01*
X126739874Y-82722458D01*
X126886626Y-82655775D01*
X127034288Y-82607488D01*
X127211407Y-82574753D01*
X127446532Y-82554726D01*
X127768212Y-82544561D01*
X128204993Y-82541414D01*
X128785424Y-82542439D01*
X129127539Y-82544053D01*
X129647025Y-82550299D01*
X130041442Y-82562988D01*
X130341419Y-82584747D01*
X130577588Y-82618203D01*
X130780577Y-82665983D01*
X130981017Y-82730712D01*
X131234055Y-82810653D01*
X131449521Y-82858439D01*
X131553102Y-82854375D01*
X131564487Y-82829581D01*
X131615069Y-82662960D01*
X131696238Y-82360549D01*
X131802704Y-81944483D01*
X131929178Y-81436894D01*
X132070370Y-80859918D01*
X132220992Y-80235687D01*
X132375752Y-79586336D01*
X132529362Y-78933999D01*
X132676533Y-78300810D01*
X132811974Y-77708901D01*
X132930397Y-77180408D01*
X133026511Y-76737464D01*
X133095028Y-76402204D01*
X133148696Y-76142940D01*
X133198008Y-75941286D01*
X133227676Y-75864068D01*
X133275842Y-75878534D01*
X133446889Y-75941072D01*
X133693221Y-76036271D01*
X133765917Y-76063841D01*
X134298354Y-76193578D01*
X134769374Y-76176273D01*
X135164488Y-76012162D01*
X135240605Y-75957135D01*
X135472935Y-75728430D01*
X135606667Y-75493154D01*
X135614760Y-75294413D01*
X135503849Y-75195034D01*
X135249204Y-75125404D01*
X134884883Y-75100628D01*
X134441493Y-75125121D01*
X134262547Y-75144639D01*
X133862284Y-75193960D01*
X133597524Y-75240687D01*
X133441522Y-75292603D01*
X133367534Y-75357494D01*
X133348814Y-75443142D01*
X133333991Y-75534087D01*
X133262712Y-75605763D01*
X133252600Y-75603720D01*
X133198617Y-75506961D01*
X133176611Y-75310012D01*
X133153701Y-75042556D01*
X133097098Y-74805128D01*
X133017585Y-74595994D01*
X133740289Y-74550906D01*
X133967868Y-74533896D01*
X134323452Y-74485032D01*
X134599739Y-74403519D01*
X134858418Y-74274083D01*
X135202775Y-74015799D01*
X135443873Y-73719346D01*
X135568639Y-73414748D01*
X135565039Y-73131425D01*
X135421037Y-72898793D01*
X135394807Y-72876679D01*
X135255213Y-72805761D01*
X135069088Y-72789407D01*
X134815214Y-72832656D01*
X134472372Y-72940545D01*
X134019345Y-73118114D01*
X133434916Y-73370400D01*
X133076679Y-73526748D01*
X132704490Y-73679587D01*
X132466653Y-73761530D01*
X132351830Y-73776306D01*
X132348682Y-73727645D01*
X132352079Y-73720742D01*
X132318240Y-73607754D01*
X132182390Y-73465417D01*
X131834878Y-73265215D01*
X131312945Y-73091208D01*
X130651583Y-72962687D01*
X129865314Y-72882418D01*
X128968663Y-72853167D01*
X128558168Y-72856881D01*
X128019744Y-72872256D01*
X127445468Y-72897526D01*
X126865055Y-72930592D01*
X126308215Y-72969359D01*
X125804662Y-73011730D01*
X125384108Y-73055609D01*
X125076266Y-73098899D01*
X124910848Y-73139503D01*
X124795371Y-73228528D01*
X124609174Y-73473611D01*
X124408980Y-73829446D01*
X124331107Y-73999951D01*
X124210895Y-74263158D01*
X124031023Y-74741873D01*
X123885468Y-75232714D01*
X123836076Y-75449804D01*
X123751124Y-75911863D01*
X123675444Y-76424617D01*
X123621062Y-76911697D01*
X123591099Y-77263782D01*
X123564490Y-77608272D01*
X123548355Y-77857578D01*
X123545410Y-77973559D01*
X123312548Y-77973559D01*
X123313468Y-77973107D01*
X123351951Y-77844323D01*
X123361017Y-77586102D01*
X123362310Y-77435662D01*
X123370081Y-77208429D01*
X123382543Y-77091017D01*
X123352439Y-77044082D01*
X123280222Y-77021134D01*
X123210339Y-76998927D01*
X123059927Y-77014277D01*
X123016611Y-77143292D01*
X123043240Y-77247520D01*
X123167289Y-77354546D01*
X123212261Y-77366468D01*
X123273404Y-77391884D01*
X123167289Y-77403911D01*
X123126326Y-77410769D01*
X123040990Y-77498495D01*
X123016611Y-77715254D01*
X122799378Y-77715254D01*
X122786049Y-77599594D01*
X122828954Y-76554184D01*
X122837041Y-76495480D01*
X123016611Y-76495480D01*
X123036616Y-76740026D01*
X123115918Y-76864499D01*
X123280222Y-76897288D01*
X123333292Y-76888534D01*
X123417588Y-76789363D01*
X123461876Y-76552881D01*
X123469200Y-76471371D01*
X123468679Y-76292768D01*
X123407245Y-76221411D01*
X123369121Y-76218157D01*
X123255666Y-76208475D01*
X123113692Y-76220871D01*
X123033584Y-76298902D01*
X123016611Y-76495480D01*
X122837041Y-76495480D01*
X122887464Y-76129474D01*
X122963417Y-75804512D01*
X123118236Y-75804512D01*
X123118796Y-75956271D01*
X123238907Y-76070110D01*
X123369121Y-76111213D01*
X123497205Y-76094913D01*
X123533221Y-75960212D01*
X123527582Y-75921685D01*
X123510253Y-75898924D01*
X123432639Y-75796983D01*
X123280738Y-75728775D01*
X123150749Y-75758630D01*
X123118236Y-75804512D01*
X122963417Y-75804512D01*
X123025770Y-75537738D01*
X123247873Y-75537738D01*
X123329906Y-75605763D01*
X123372931Y-75606062D01*
X123510253Y-75610886D01*
X123538940Y-75586639D01*
X123606417Y-75440249D01*
X123678374Y-75204461D01*
X123694778Y-75136956D01*
X123730589Y-74860734D01*
X123682192Y-74728633D01*
X123674997Y-74708994D01*
X123521737Y-74659963D01*
X123463927Y-74687451D01*
X123421974Y-74814053D01*
X123440441Y-74973399D01*
X123519703Y-75086737D01*
X123563467Y-75113279D01*
X123601058Y-75160494D01*
X123478682Y-75172636D01*
X123343903Y-75214054D01*
X123253842Y-75390509D01*
X123247873Y-75537738D01*
X123025770Y-75537738D01*
X123118686Y-75140202D01*
X123364287Y-74509475D01*
X123585410Y-74509475D01*
X123659392Y-74602535D01*
X123682192Y-74610334D01*
X123825718Y-74589950D01*
X123877628Y-74429040D01*
X123868934Y-74392360D01*
X123865951Y-74379775D01*
X123757687Y-74314237D01*
X123734441Y-74315859D01*
X123619357Y-74387726D01*
X123585410Y-74509475D01*
X123364287Y-74509475D01*
X123467959Y-74243236D01*
X123506596Y-74177476D01*
X123794134Y-74177476D01*
X123868934Y-74228136D01*
X123903985Y-74208478D01*
X124009099Y-74076818D01*
X124133923Y-73862204D01*
X124321503Y-73496271D01*
X124056515Y-73781416D01*
X124043163Y-73795859D01*
X123853314Y-74030755D01*
X123794134Y-74177476D01*
X123506596Y-74177476D01*
X123926962Y-73462013D01*
X123974069Y-73382743D01*
X124308136Y-73382743D01*
X124331107Y-73420918D01*
X124439369Y-73365392D01*
X124521251Y-73269013D01*
X124512054Y-73202195D01*
X124399966Y-73234426D01*
X124371503Y-73256546D01*
X124308136Y-73382743D01*
X123974069Y-73382743D01*
X124073427Y-73215545D01*
X124133791Y-72927488D01*
X124034061Y-72662088D01*
X123770000Y-72390419D01*
X123590223Y-72253770D01*
X123129162Y-71956938D01*
X122601005Y-71668481D01*
X122071669Y-71422999D01*
X121607071Y-71255092D01*
X121099957Y-71155291D01*
X120413968Y-71154411D01*
X119752469Y-71298857D01*
X119148118Y-71580542D01*
X118633571Y-71991381D01*
X118395747Y-72281576D01*
X118292110Y-72558080D01*
X118069765Y-72558080D01*
X118080337Y-72415106D01*
X117406258Y-72433254D01*
X115920507Y-72473253D01*
X115905359Y-72473662D01*
X115139126Y-72498223D01*
X115009153Y-72504169D01*
X114531928Y-72526001D01*
X114087052Y-72556771D01*
X113807787Y-72590306D01*
X113697421Y-72626378D01*
X113666398Y-72706544D01*
X113635115Y-72960611D01*
X113631134Y-73327225D01*
X113392870Y-73327225D01*
X113400528Y-73141459D01*
X113459584Y-72764407D01*
X113482008Y-72676546D01*
X113552454Y-72371324D01*
X114294509Y-72371324D01*
X114398471Y-72379166D01*
X114641150Y-72384380D01*
X115009153Y-72386272D01*
X115207994Y-72385785D01*
X115515005Y-72382145D01*
X115689996Y-72375529D01*
X115719571Y-72366634D01*
X115590339Y-72356151D01*
X115318825Y-72346833D01*
X114851942Y-72344503D01*
X114427967Y-72356151D01*
X114342659Y-72361548D01*
X114294509Y-72371324D01*
X113552454Y-72371324D01*
X113554744Y-72361403D01*
X113596143Y-72147333D01*
X113970462Y-72147333D01*
X113975933Y-72184094D01*
X114030727Y-72193870D01*
X114243497Y-72210565D01*
X114586931Y-72227352D01*
X115035300Y-72243234D01*
X115562876Y-72257211D01*
X116143928Y-72268284D01*
X116362758Y-72271656D01*
X116956631Y-72279997D01*
X117406258Y-72283458D01*
X117732915Y-72280516D01*
X117957879Y-72269651D01*
X118102425Y-72249341D01*
X118187828Y-72218065D01*
X118235366Y-72174302D01*
X118266314Y-72116530D01*
X118349857Y-71933174D01*
X116744081Y-71963731D01*
X116608801Y-71966467D01*
X115935451Y-71985168D01*
X115333053Y-72010238D01*
X114818481Y-72040332D01*
X114408610Y-72074109D01*
X114120312Y-72110223D01*
X113970462Y-72147333D01*
X113596143Y-72147333D01*
X113605854Y-72097119D01*
X113619289Y-72007686D01*
X113615448Y-71874901D01*
X113525860Y-71824939D01*
X113307302Y-71817288D01*
X113277537Y-71817099D01*
X112968903Y-71799947D01*
X112695170Y-71763475D01*
X112591410Y-71746041D01*
X112460115Y-71758699D01*
X112426102Y-71853478D01*
X112436028Y-71917946D01*
X112517258Y-71964450D01*
X112717598Y-71942610D01*
X112942619Y-71928359D01*
X113067086Y-71981759D01*
X113163844Y-72046818D01*
X113356777Y-72087319D01*
X113459820Y-72093859D01*
X113509230Y-72108689D01*
X113399188Y-72135776D01*
X113251275Y-72138255D01*
X113025444Y-72073790D01*
X112872918Y-72022579D01*
X112615319Y-72057238D01*
X112395444Y-72225413D01*
X112254426Y-72504145D01*
X112245674Y-72537848D01*
X112192822Y-72809815D01*
X112175326Y-73032070D01*
X112169102Y-73180949D01*
X112122275Y-73431695D01*
X112101321Y-73557426D01*
X112155909Y-73625424D01*
X112156063Y-73625424D01*
X112205239Y-73675983D01*
X112151472Y-73842124D01*
X112128562Y-73895239D01*
X112100564Y-74052371D01*
X112185983Y-74165005D01*
X112239439Y-74217834D01*
X112275748Y-74320046D01*
X112264094Y-74494341D01*
X112205991Y-74787797D01*
X112191950Y-74852231D01*
X112122786Y-75195518D01*
X112094110Y-75417644D01*
X111268184Y-75417644D01*
X111289120Y-75306493D01*
X111289302Y-75303443D01*
X111292046Y-74952634D01*
X111238988Y-74680954D01*
X111220678Y-74640167D01*
X111113014Y-74400339D01*
X111111594Y-74397694D01*
X110991824Y-74222109D01*
X111325713Y-74222109D01*
X111368644Y-74373978D01*
X111474244Y-74648728D01*
X111474873Y-74650314D01*
X111570557Y-74865938D01*
X111634407Y-74934066D01*
X111682911Y-74872367D01*
X111694957Y-74829586D01*
X111692575Y-74625525D01*
X111632564Y-74399915D01*
X111610338Y-74357288D01*
X111995594Y-74357288D01*
X112038644Y-74400339D01*
X112081695Y-74357288D01*
X112038644Y-74314237D01*
X111995594Y-74357288D01*
X111610338Y-74357288D01*
X111598438Y-74334464D01*
X111537324Y-74217253D01*
X111429255Y-74142034D01*
X111414994Y-74142138D01*
X111342235Y-74156902D01*
X111325713Y-74222109D01*
X110991824Y-74222109D01*
X110957596Y-74171930D01*
X110737781Y-73921528D01*
X110487128Y-73678066D01*
X110240614Y-73473124D01*
X110033216Y-73338280D01*
X109899913Y-73305114D01*
X109876510Y-73319965D01*
X109786081Y-73455348D01*
X109699813Y-73675376D01*
X109669789Y-73767481D01*
X109615769Y-73886107D01*
X109591363Y-73865613D01*
X109593486Y-73780292D01*
X109661447Y-73454342D01*
X109789375Y-73109577D01*
X110022413Y-73109577D01*
X110123213Y-73217919D01*
X110129760Y-73220741D01*
X110257262Y-73302338D01*
X110470116Y-73459969D01*
X110725925Y-73662370D01*
X110773647Y-73700907D01*
X111000632Y-73873842D01*
X111160325Y-73978273D01*
X111220678Y-73992794D01*
X111182136Y-73929103D01*
X111175062Y-73921698D01*
X111478983Y-73921698D01*
X111482946Y-73935510D01*
X111565085Y-74012881D01*
X111598438Y-74026335D01*
X111651187Y-73974912D01*
X111647878Y-73949920D01*
X111584986Y-73899639D01*
X111565085Y-73883729D01*
X111545600Y-73884716D01*
X111478983Y-73921698D01*
X111175062Y-73921698D01*
X111041488Y-73781868D01*
X110847571Y-73609106D01*
X110833221Y-73596321D01*
X110667924Y-73446435D01*
X110596599Y-73367119D01*
X110790170Y-73367119D01*
X110796384Y-73412701D01*
X110847571Y-73424520D01*
X110857876Y-73411900D01*
X110847571Y-73309718D01*
X110821673Y-73296247D01*
X110790170Y-73367119D01*
X110596599Y-73367119D01*
X110507709Y-73268270D01*
X110448064Y-73154979D01*
X110657504Y-73154979D01*
X110755998Y-73194915D01*
X110824354Y-73206804D01*
X111030635Y-73285585D01*
X111277690Y-73413799D01*
X111416923Y-73490492D01*
X111584986Y-73564480D01*
X111650121Y-73564477D01*
X111638776Y-73536814D01*
X111608136Y-73507574D01*
X111523779Y-73427070D01*
X111327451Y-73290187D01*
X111219009Y-73227803D01*
X111651187Y-73227803D01*
X111658929Y-73285961D01*
X111737289Y-73410170D01*
X111780327Y-73419361D01*
X111823390Y-73334231D01*
X111815648Y-73276073D01*
X111737289Y-73151865D01*
X111694250Y-73142674D01*
X111651187Y-73227803D01*
X111219009Y-73227803D01*
X111102846Y-73160977D01*
X110903018Y-73074252D01*
X110778154Y-73057303D01*
X110663182Y-73105311D01*
X110657504Y-73154979D01*
X110448064Y-73154979D01*
X110445763Y-73150609D01*
X110453391Y-73090657D01*
X110565980Y-72960914D01*
X110789168Y-72923603D01*
X111092078Y-72986560D01*
X111180033Y-73017069D01*
X111367684Y-73081317D01*
X111448246Y-73107517D01*
X111463993Y-73084576D01*
X111517022Y-72961674D01*
X111518240Y-72893559D01*
X111823390Y-72893559D01*
X111866441Y-72936610D01*
X111909492Y-72893559D01*
X111866441Y-72850509D01*
X111823390Y-72893559D01*
X111518240Y-72893559D01*
X111519245Y-72837316D01*
X111375556Y-72662233D01*
X111342255Y-72635254D01*
X111565085Y-72635254D01*
X111608136Y-72678305D01*
X111651187Y-72635254D01*
X111608136Y-72592204D01*
X111565085Y-72635254D01*
X111342255Y-72635254D01*
X111280097Y-72584897D01*
X111241977Y-72523156D01*
X111333387Y-72508016D01*
X111417419Y-72490214D01*
X111427711Y-72406697D01*
X111413684Y-72378983D01*
X111445347Y-72358202D01*
X111568649Y-72427061D01*
X111752628Y-72569996D01*
X111768063Y-72583006D01*
X111859525Y-72632962D01*
X111921663Y-72570658D01*
X111987074Y-72368012D01*
X112005082Y-72300916D01*
X112049499Y-72109533D01*
X112057836Y-72023299D01*
X111971073Y-72005973D01*
X111758700Y-71978212D01*
X111467287Y-71946199D01*
X111141781Y-71927102D01*
X110890356Y-71957093D01*
X110799325Y-72046115D01*
X110867798Y-72194536D01*
X110888330Y-72223653D01*
X110880089Y-72320810D01*
X110724533Y-72426306D01*
X110500794Y-72553217D01*
X110252034Y-72714785D01*
X110189979Y-72763723D01*
X110048480Y-72943292D01*
X110022413Y-73109577D01*
X109789375Y-73109577D01*
X109801925Y-73075755D01*
X109989131Y-72706542D01*
X110197275Y-72408713D01*
X110332994Y-72243871D01*
X110450738Y-72076074D01*
X110479683Y-71994711D01*
X110472271Y-71991244D01*
X110383797Y-72043676D01*
X110248224Y-72188339D01*
X110235274Y-72203905D01*
X110014955Y-72406417D01*
X109756950Y-72572432D01*
X109516604Y-72746588D01*
X109283390Y-73065763D01*
X109216134Y-73222974D01*
X109150996Y-73476698D01*
X109113308Y-73810900D01*
X109095980Y-74271187D01*
X109092791Y-74468657D01*
X109091736Y-74846782D01*
X108778075Y-74846782D01*
X108769911Y-74783004D01*
X108743815Y-74505981D01*
X108743143Y-74281776D01*
X108768428Y-74045259D01*
X108820203Y-73731300D01*
X108851827Y-73565519D01*
X108938834Y-73268875D01*
X109078659Y-73018091D01*
X109310159Y-72734077D01*
X109521767Y-72505618D01*
X109718886Y-72311172D01*
X109848060Y-72204746D01*
X109850877Y-72203062D01*
X110024172Y-72091802D01*
X110236400Y-71946741D01*
X110315139Y-71896366D01*
X110462313Y-71834916D01*
X110659475Y-71800332D01*
X110947271Y-71786945D01*
X111366343Y-71789084D01*
X111635183Y-71789689D01*
X111964986Y-71778583D01*
X112199875Y-71755863D01*
X112301263Y-71724207D01*
X112318076Y-71711661D01*
X112467831Y-71677685D01*
X112731829Y-71653987D01*
X113066404Y-71645085D01*
X113273164Y-71647037D01*
X113591568Y-71665531D01*
X113787608Y-71707980D01*
X113894425Y-71779773D01*
X113983441Y-71848516D01*
X114196790Y-71866627D01*
X114261957Y-71858138D01*
X114491580Y-71844880D01*
X114850514Y-71833011D01*
X115312112Y-71823180D01*
X115849727Y-71816032D01*
X116436711Y-71812216D01*
X116933131Y-71810160D01*
X117472252Y-71805476D01*
X117878867Y-71797009D01*
X118175812Y-71783001D01*
X118385923Y-71761699D01*
X118532036Y-71731348D01*
X118636988Y-71690192D01*
X118723615Y-71636477D01*
X118872713Y-71542060D01*
X119152393Y-71387414D01*
X119460591Y-71234258D01*
X119523204Y-71205422D01*
X119786711Y-71099406D01*
X120034939Y-71038886D01*
X120330228Y-71012920D01*
X120734916Y-71010564D01*
X121118970Y-71025014D01*
G37*
%LPC*%
D12*
X134000000Y-61810000D03*
D13*
X134000000Y-54190000D03*
D14*
X140260000Y-116500000D03*
D15*
X155500000Y-116500000D03*
D14*
X140385000Y-140500000D03*
D15*
X155625000Y-140500000D03*
D14*
X140385000Y-145000000D03*
D15*
X155625000Y-145000000D03*
D16*
X170270000Y-127330000D03*
D17*
X169000000Y-129400000D03*
X167730000Y-127330000D03*
D18*
X161000000Y-93500000D03*
D14*
X163500000Y-93500000D03*
D19*
X140760000Y-71500000D03*
D20*
X140760000Y-63900000D03*
X153460000Y-71500000D03*
X156000000Y-63900000D03*
D21*
X169500000Y-66360000D03*
D22*
X169500000Y-63820000D03*
D21*
X169500000Y-123500000D03*
D22*
X169500000Y-120960000D03*
D19*
X140910000Y-157300000D03*
D20*
X140910000Y-149700000D03*
X153610000Y-157300000D03*
X156150000Y-149700000D03*
D16*
X170270000Y-98830000D03*
D17*
X169000000Y-100900000D03*
X167730000Y-98830000D03*
D14*
X140260000Y-112000000D03*
D15*
X155500000Y-112000000D03*
D18*
X160500000Y-65050000D03*
D14*
X163000000Y-65050000D03*
D21*
X169500000Y-95000000D03*
D22*
X169500000Y-92460000D03*
D14*
X140260000Y-59050000D03*
D15*
X155500000Y-59050000D03*
D23*
X158800000Y-54700000D03*
D24*
X161800000Y-49900000D03*
D25*
X165000000Y-54700000D03*
D14*
X140260000Y-82950000D03*
D15*
X155500000Y-82950000D03*
D14*
X140260000Y-87500000D03*
D15*
X155500000Y-87500000D03*
D16*
X170270000Y-70150000D03*
D17*
X169000000Y-72220000D03*
X167730000Y-70150000D03*
D21*
X169500000Y-152275000D03*
D22*
X169500000Y-149735000D03*
D26*
X110640000Y-110400000D03*
D27*
X110640000Y-112940000D03*
X110640000Y-115480000D03*
X110640000Y-118020000D03*
X110640000Y-120560000D03*
X110640000Y-123100000D03*
X110640000Y-125640000D03*
X110640000Y-128180000D03*
X110640000Y-130720000D03*
X110640000Y-133260000D03*
X110640000Y-135800000D03*
X110640000Y-138340000D03*
X110640000Y-140880000D03*
X110640000Y-143420000D03*
X110640000Y-145960000D03*
X110640000Y-148500000D03*
X133500000Y-110400000D03*
X133500000Y-112940000D03*
X133500000Y-115480000D03*
X133500000Y-118020000D03*
X133500000Y-120560000D03*
X133500000Y-123100000D03*
X133500000Y-125640000D03*
X133500000Y-128180000D03*
X133500000Y-130720000D03*
X133500000Y-133260000D03*
X133500000Y-135800000D03*
X133500000Y-138340000D03*
X133500000Y-140880000D03*
X133500000Y-143420000D03*
X133500000Y-145960000D03*
X133500000Y-148500000D03*
D18*
X160500000Y-151000000D03*
D14*
X163000000Y-151000000D03*
D23*
X158800000Y-140500000D03*
D24*
X161800000Y-135700000D03*
D25*
X165000000Y-140500000D03*
D14*
X127500000Y-65500000D03*
D15*
X127500000Y-50260000D03*
D14*
X140380000Y-136000000D03*
D15*
X155620000Y-136000000D03*
D19*
X140910000Y-128800000D03*
D20*
X140910000Y-121200000D03*
X153610000Y-128800000D03*
X156150000Y-121200000D03*
D14*
X140260000Y-50050000D03*
D15*
X155500000Y-50050000D03*
D23*
X158750000Y-112000000D03*
D24*
X161750000Y-107200000D03*
D25*
X164950000Y-112000000D03*
D18*
X161000000Y-122500000D03*
D14*
X163500000Y-122500000D03*
D25*
X122112500Y-57500000D03*
D28*
X119112500Y-62300000D03*
D23*
X115912500Y-57500000D03*
D19*
X140910000Y-99800000D03*
D20*
X140910000Y-92200000D03*
X153610000Y-99800000D03*
X156150000Y-92200000D03*
D16*
X170270000Y-156330000D03*
D17*
X169000000Y-158400000D03*
X167730000Y-156330000D03*
D14*
X140260000Y-78450000D03*
D15*
X155500000Y-78450000D03*
D14*
X140260000Y-54550000D03*
D15*
X155500000Y-54550000D03*
D23*
X158750000Y-83000000D03*
D24*
X161750000Y-78200000D03*
D25*
X164950000Y-83000000D03*
D14*
X140260000Y-107500000D03*
D15*
X155500000Y-107500000D03*
%LPD*%
M02*
