%TF.GenerationSoftware,KiCad,Pcbnew,8.0.1*%
%TF.CreationDate,2025-02-18T20:23:37+01:00*%
%TF.ProjectId,arroseurPCB,6172726f-7365-4757-9250-43422e6b6963,rev?*%
%TF.SameCoordinates,Original*%
%TF.FileFunction,Drillmap*%
%TF.FilePolarity,Positive*%
%FSLAX45Y45*%
G04 Gerber Fmt 4.5, Leading zero omitted, Abs format (unit mm)*
G04 Created by KiCad (PCBNEW 8.0.1) date 2025-02-18 20:23:37*
%MOMM*%
%LPD*%
G01*
G04 APERTURE LIST*
%ADD10C,0.050000*%
%ADD11C,0.200000*%
G04 APERTURE END LIST*
D10*
X17300000Y-15950000D02*
X17300000Y-5000000D01*
X10750000Y-5000000D02*
G75*
G02*
X11000000Y-4750000I250000J0D01*
G01*
X17300000Y-15950000D02*
G75*
G02*
X17050000Y-16200000I-250000J0D01*
G01*
X17050000Y-4750000D02*
G75*
G02*
X17300000Y-5000000I0J-250000D01*
G01*
X11000000Y-16200000D02*
X17050000Y-16200000D01*
X17050000Y-4750000D02*
X11000000Y-4750000D01*
X11000000Y-16200000D02*
G75*
G02*
X10750000Y-15950000I0J250000D01*
G01*
X10750000Y-5000000D02*
X10750000Y-15950000D01*
D11*
X11008277Y-16513984D02*
X11008277Y-16313984D01*
X11008277Y-16313984D02*
X11055896Y-16313984D01*
X11055896Y-16313984D02*
X11084467Y-16323508D01*
X11084467Y-16323508D02*
X11103515Y-16342555D01*
X11103515Y-16342555D02*
X11113039Y-16361603D01*
X11113039Y-16361603D02*
X11122563Y-16399698D01*
X11122563Y-16399698D02*
X11122563Y-16428269D01*
X11122563Y-16428269D02*
X11113039Y-16466365D01*
X11113039Y-16466365D02*
X11103515Y-16485412D01*
X11103515Y-16485412D02*
X11084467Y-16504460D01*
X11084467Y-16504460D02*
X11055896Y-16513984D01*
X11055896Y-16513984D02*
X11008277Y-16513984D01*
X11208277Y-16513984D02*
X11208277Y-16380650D01*
X11208277Y-16418746D02*
X11217801Y-16399698D01*
X11217801Y-16399698D02*
X11227324Y-16390174D01*
X11227324Y-16390174D02*
X11246372Y-16380650D01*
X11246372Y-16380650D02*
X11265420Y-16380650D01*
X11332086Y-16513984D02*
X11332086Y-16380650D01*
X11332086Y-16313984D02*
X11322562Y-16323508D01*
X11322562Y-16323508D02*
X11332086Y-16333031D01*
X11332086Y-16333031D02*
X11341610Y-16323508D01*
X11341610Y-16323508D02*
X11332086Y-16313984D01*
X11332086Y-16313984D02*
X11332086Y-16333031D01*
X11455896Y-16513984D02*
X11436848Y-16504460D01*
X11436848Y-16504460D02*
X11427324Y-16485412D01*
X11427324Y-16485412D02*
X11427324Y-16313984D01*
X11560658Y-16513984D02*
X11541610Y-16504460D01*
X11541610Y-16504460D02*
X11532086Y-16485412D01*
X11532086Y-16485412D02*
X11532086Y-16313984D01*
X11789229Y-16513984D02*
X11789229Y-16313984D01*
X11789229Y-16313984D02*
X11855896Y-16456841D01*
X11855896Y-16456841D02*
X11922562Y-16313984D01*
X11922562Y-16313984D02*
X11922562Y-16513984D01*
X12103515Y-16513984D02*
X12103515Y-16409222D01*
X12103515Y-16409222D02*
X12093991Y-16390174D01*
X12093991Y-16390174D02*
X12074943Y-16380650D01*
X12074943Y-16380650D02*
X12036848Y-16380650D01*
X12036848Y-16380650D02*
X12017801Y-16390174D01*
X12103515Y-16504460D02*
X12084467Y-16513984D01*
X12084467Y-16513984D02*
X12036848Y-16513984D01*
X12036848Y-16513984D02*
X12017801Y-16504460D01*
X12017801Y-16504460D02*
X12008277Y-16485412D01*
X12008277Y-16485412D02*
X12008277Y-16466365D01*
X12008277Y-16466365D02*
X12017801Y-16447317D01*
X12017801Y-16447317D02*
X12036848Y-16437793D01*
X12036848Y-16437793D02*
X12084467Y-16437793D01*
X12084467Y-16437793D02*
X12103515Y-16428269D01*
X12198753Y-16380650D02*
X12198753Y-16580650D01*
X12198753Y-16390174D02*
X12217801Y-16380650D01*
X12217801Y-16380650D02*
X12255896Y-16380650D01*
X12255896Y-16380650D02*
X12274943Y-16390174D01*
X12274943Y-16390174D02*
X12284467Y-16399698D01*
X12284467Y-16399698D02*
X12293991Y-16418746D01*
X12293991Y-16418746D02*
X12293991Y-16475888D01*
X12293991Y-16475888D02*
X12284467Y-16494936D01*
X12284467Y-16494936D02*
X12274943Y-16504460D01*
X12274943Y-16504460D02*
X12255896Y-16513984D01*
X12255896Y-16513984D02*
X12217801Y-16513984D01*
X12217801Y-16513984D02*
X12198753Y-16504460D01*
X12379705Y-16494936D02*
X12389229Y-16504460D01*
X12389229Y-16504460D02*
X12379705Y-16513984D01*
X12379705Y-16513984D02*
X12370182Y-16504460D01*
X12370182Y-16504460D02*
X12379705Y-16494936D01*
X12379705Y-16494936D02*
X12379705Y-16513984D01*
X12379705Y-16390174D02*
X12389229Y-16399698D01*
X12389229Y-16399698D02*
X12379705Y-16409222D01*
X12379705Y-16409222D02*
X12370182Y-16399698D01*
X12370182Y-16399698D02*
X12379705Y-16390174D01*
X12379705Y-16390174D02*
X12379705Y-16409222D01*
M02*
