G04 #@! TF.GenerationSoftware,KiCad,Pcbnew,8.0.1*
G04 #@! TF.CreationDate,2025-03-04T19:56:39+01:00*
G04 #@! TF.ProjectId,arroseurPCB,6172726f-7365-4757-9250-43422e6b6963,rev?*
G04 #@! TF.SameCoordinates,Original*
G04 #@! TF.FileFunction,Copper,L1,Top*
G04 #@! TF.FilePolarity,Positive*
%FSLAX46Y46*%
G04 Gerber Fmt 4.6, Leading zero omitted, Abs format (unit mm)*
G04 Created by KiCad (PCBNEW 8.0.1) date 2025-03-04 19:56:39*
%MOMM*%
%LPD*%
G01*
G04 APERTURE LIST*
G04 Aperture macros list*
%AMRoundRect*
0 Rectangle with rounded corners*
0 $1 Rounding radius*
0 $2 $3 $4 $5 $6 $7 $8 $9 X,Y pos of 4 corners*
0 Add a 4 corners polygon primitive as box body*
4,1,4,$2,$3,$4,$5,$6,$7,$8,$9,$2,$3,0*
0 Add four circle primitives for the rounded corners*
1,1,$1+$1,$2,$3*
1,1,$1+$1,$4,$5*
1,1,$1+$1,$6,$7*
1,1,$1+$1,$8,$9*
0 Add four rect primitives between the rounded corners*
20,1,$1+$1,$2,$3,$4,$5,0*
20,1,$1+$1,$4,$5,$6,$7,0*
20,1,$1+$1,$6,$7,$8,$9,0*
20,1,$1+$1,$8,$9,$2,$3,0*%
G04 Aperture macros list end*
G04 #@! TA.AperFunction,ComponentPad*
%ADD10R,2.200000X2.200000*%
G04 #@! TD*
G04 #@! TA.AperFunction,ComponentPad*
%ADD11O,2.200000X2.200000*%
G04 #@! TD*
G04 #@! TA.AperFunction,ComponentPad*
%ADD12C,1.600000*%
G04 #@! TD*
G04 #@! TA.AperFunction,ComponentPad*
%ADD13O,1.600000X1.600000*%
G04 #@! TD*
G04 #@! TA.AperFunction,ComponentPad*
%ADD14R,1.100000X1.800000*%
G04 #@! TD*
G04 #@! TA.AperFunction,ComponentPad*
%ADD15RoundRect,0.275000X0.275000X0.625000X-0.275000X0.625000X-0.275000X-0.625000X0.275000X-0.625000X0*%
G04 #@! TD*
G04 #@! TA.AperFunction,ComponentPad*
%ADD16R,1.600000X1.600000*%
G04 #@! TD*
G04 #@! TA.AperFunction,ComponentPad*
%ADD17R,1.950000X1.950000*%
G04 #@! TD*
G04 #@! TA.AperFunction,ComponentPad*
%ADD18C,1.950000*%
G04 #@! TD*
G04 #@! TA.AperFunction,ComponentPad*
%ADD19R,1.800000X1.800000*%
G04 #@! TD*
G04 #@! TA.AperFunction,ComponentPad*
%ADD20C,1.800000*%
G04 #@! TD*
G04 #@! TA.AperFunction,ComponentPad*
%ADD21RoundRect,1.000000X0.000010X1.100000X-0.000010X1.100000X-0.000010X-1.100000X0.000010X-1.100000X0*%
G04 #@! TD*
G04 #@! TA.AperFunction,ComponentPad*
%ADD22RoundRect,1.000000X-1.100000X0.000010X-1.100000X-0.000010X1.100000X-0.000010X1.100000X0.000010X0*%
G04 #@! TD*
G04 #@! TA.AperFunction,ComponentPad*
%ADD23RoundRect,1.000000X-0.000010X-1.100000X0.000010X-1.100000X0.000010X1.100000X-0.000010X1.100000X0*%
G04 #@! TD*
G04 #@! TA.AperFunction,ComponentPad*
%ADD24R,1.524000X1.524000*%
G04 #@! TD*
G04 #@! TA.AperFunction,ComponentPad*
%ADD25C,1.524000*%
G04 #@! TD*
G04 #@! TA.AperFunction,ComponentPad*
%ADD26RoundRect,1.000000X1.100000X-0.000010X1.100000X0.000010X-1.100000X0.000010X-1.100000X-0.000010X0*%
G04 #@! TD*
G04 #@! TA.AperFunction,ViaPad*
%ADD27C,1.000000*%
G04 #@! TD*
G04 #@! TA.AperFunction,Conductor*
%ADD28C,1.000000*%
G04 #@! TD*
G04 #@! TA.AperFunction,Conductor*
%ADD29C,0.500000*%
G04 #@! TD*
G04 APERTURE END LIST*
D10*
X134000000Y-61810000D03*
D11*
X134000000Y-54190000D03*
D12*
X140260000Y-116500000D03*
D13*
X155500000Y-116500000D03*
D12*
X140385000Y-140500000D03*
D13*
X155625000Y-140500000D03*
D12*
X140385000Y-145000000D03*
D13*
X155625000Y-145000000D03*
D14*
X170270000Y-127330000D03*
D15*
X169000000Y-129400000D03*
X167730000Y-127330000D03*
D16*
X161000000Y-93500000D03*
D12*
X163500000Y-93500000D03*
D17*
X140760000Y-71500000D03*
D18*
X140760000Y-63900000D03*
X153460000Y-71500000D03*
X156000000Y-63900000D03*
D19*
X169500000Y-66360000D03*
D20*
X169500000Y-63820000D03*
D19*
X169500000Y-123500000D03*
D20*
X169500000Y-120960000D03*
D17*
X140910000Y-157300000D03*
D18*
X140910000Y-149700000D03*
X153610000Y-157300000D03*
X156150000Y-149700000D03*
D14*
X170270000Y-98830000D03*
D15*
X169000000Y-100900000D03*
X167730000Y-98830000D03*
D12*
X140260000Y-112000000D03*
D13*
X155500000Y-112000000D03*
D16*
X160500000Y-65050000D03*
D12*
X163000000Y-65050000D03*
D19*
X169500000Y-95000000D03*
D20*
X169500000Y-92460000D03*
D12*
X140260000Y-59050000D03*
D13*
X155500000Y-59050000D03*
D21*
X158800000Y-54700000D03*
D22*
X161800000Y-49900000D03*
D23*
X165000000Y-54700000D03*
D12*
X140260000Y-82950000D03*
D13*
X155500000Y-82950000D03*
D12*
X140260000Y-87500000D03*
D13*
X155500000Y-87500000D03*
D14*
X170270000Y-70150000D03*
D15*
X169000000Y-72220000D03*
X167730000Y-70150000D03*
D19*
X169500000Y-152275000D03*
D20*
X169500000Y-149735000D03*
D24*
X110640000Y-110400000D03*
D25*
X110640000Y-112940000D03*
X110640000Y-115480000D03*
X110640000Y-118020000D03*
X110640000Y-120560000D03*
X110640000Y-123100000D03*
X110640000Y-125640000D03*
X110640000Y-128180000D03*
X110640000Y-130720000D03*
X110640000Y-133260000D03*
X110640000Y-135800000D03*
X110640000Y-138340000D03*
X110640000Y-140880000D03*
X110640000Y-143420000D03*
X110640000Y-145960000D03*
X110640000Y-148500000D03*
X133500000Y-110400000D03*
X133500000Y-112940000D03*
X133500000Y-115480000D03*
X133500000Y-118020000D03*
X133500000Y-120560000D03*
X133500000Y-123100000D03*
X133500000Y-125640000D03*
X133500000Y-128180000D03*
X133500000Y-130720000D03*
X133500000Y-133260000D03*
X133500000Y-135800000D03*
X133500000Y-138340000D03*
X133500000Y-140880000D03*
X133500000Y-143420000D03*
X133500000Y-145960000D03*
X133500000Y-148500000D03*
D16*
X160500000Y-151000000D03*
D12*
X163000000Y-151000000D03*
D21*
X158800000Y-140500000D03*
D22*
X161800000Y-135700000D03*
D23*
X165000000Y-140500000D03*
D12*
X127500000Y-65500000D03*
D13*
X127500000Y-50260000D03*
D12*
X140380000Y-136000000D03*
D13*
X155620000Y-136000000D03*
D17*
X140910000Y-128800000D03*
D18*
X140910000Y-121200000D03*
X153610000Y-128800000D03*
X156150000Y-121200000D03*
D12*
X140260000Y-50050000D03*
D13*
X155500000Y-50050000D03*
D21*
X158750000Y-112000000D03*
D22*
X161750000Y-107200000D03*
D23*
X164950000Y-112000000D03*
D16*
X161000000Y-122500000D03*
D12*
X163500000Y-122500000D03*
D23*
X122112500Y-57500000D03*
D26*
X119112500Y-62300000D03*
D21*
X115912500Y-57500000D03*
D17*
X140910000Y-99800000D03*
D18*
X140910000Y-92200000D03*
X153610000Y-99800000D03*
X156150000Y-92200000D03*
D14*
X170270000Y-156330000D03*
D15*
X169000000Y-158400000D03*
X167730000Y-156330000D03*
D12*
X140260000Y-78450000D03*
D13*
X155500000Y-78450000D03*
D12*
X140260000Y-54550000D03*
D13*
X155500000Y-54550000D03*
D21*
X158750000Y-83000000D03*
D22*
X161750000Y-78200000D03*
D23*
X164950000Y-83000000D03*
D12*
X140260000Y-107500000D03*
D13*
X155500000Y-107500000D03*
D27*
X135880000Y-107620000D03*
X137500000Y-148000000D03*
X135380000Y-93280000D03*
X135500000Y-65500000D03*
D28*
X140910000Y-128800000D02*
X153610000Y-128800000D01*
X138000000Y-71500000D02*
X138000000Y-100000000D01*
X153460000Y-71500000D02*
X154050000Y-71500000D01*
X147000000Y-152500000D02*
X146000000Y-152500000D01*
X153610000Y-128800000D02*
X154700000Y-128800000D01*
X140910000Y-128800000D02*
X138300000Y-128800000D01*
X138000000Y-62210000D02*
X138000000Y-71500000D01*
X154700000Y-128800000D02*
X161000000Y-122500000D01*
X138200000Y-99800000D02*
X138000000Y-100000000D01*
X140760000Y-71500000D02*
X138000000Y-71500000D01*
X127500000Y-57500000D02*
X133290000Y-57500000D01*
X138000000Y-128500000D02*
X138000000Y-145500000D01*
X141200000Y-157300000D02*
X146000000Y-152500000D01*
X138000000Y-100000000D02*
X138000000Y-128500000D01*
X140000000Y-147500000D02*
X142000000Y-147500000D01*
X140910000Y-99800000D02*
X153610000Y-99800000D01*
X146000000Y-151500000D02*
X146000000Y-152500000D01*
X140910000Y-99800000D02*
X138200000Y-99800000D01*
X151800000Y-157300000D02*
X147000000Y-152500000D01*
X140910000Y-157300000D02*
X141200000Y-157300000D01*
X140760000Y-71500000D02*
X153460000Y-71500000D01*
X127500000Y-50260000D02*
X127500000Y-57500000D01*
X154700000Y-99800000D02*
X161000000Y-93500000D01*
X153610000Y-157300000D02*
X154200000Y-157300000D01*
X154050000Y-71500000D02*
X160500000Y-65050000D01*
X122700000Y-57500000D02*
X127500000Y-57500000D01*
X142000000Y-147500000D02*
X146000000Y-151500000D01*
X153610000Y-99800000D02*
X154700000Y-99800000D01*
X138300000Y-128800000D02*
X138000000Y-128500000D01*
X133290000Y-57500000D02*
X138000000Y-62210000D01*
X153610000Y-157300000D02*
X151800000Y-157300000D01*
X154200000Y-157300000D02*
X160500000Y-151000000D01*
X138000000Y-145500000D02*
X140000000Y-147500000D01*
X147000000Y-152500000D02*
X146000000Y-151500000D01*
D29*
X155500000Y-107500000D02*
X157953951Y-107500000D01*
X169480000Y-120960000D02*
X169500000Y-120960000D01*
X157953951Y-107500000D02*
X162000000Y-111546049D01*
X162000000Y-113480000D02*
X169480000Y-120960000D01*
X162000000Y-111546049D02*
X162000000Y-113480000D01*
X162750000Y-142750000D02*
X162750000Y-140750000D01*
X158000000Y-136000000D02*
X155620000Y-136000000D01*
X162750000Y-140750000D02*
X158000000Y-136000000D01*
X169500000Y-149735000D02*
X169500000Y-149500000D01*
X169500000Y-149500000D02*
X162750000Y-142750000D01*
X162000000Y-83092098D02*
X162000000Y-84960000D01*
X155500000Y-78450000D02*
X157357902Y-78450000D01*
X157357902Y-78450000D02*
X162000000Y-83092098D01*
X162000000Y-84960000D02*
X169500000Y-92460000D01*
X162000000Y-56320000D02*
X169500000Y-63820000D01*
X157307902Y-50050000D02*
X162000000Y-54742098D01*
X162000000Y-54742098D02*
X162000000Y-56320000D01*
X155500000Y-50050000D02*
X157307902Y-50050000D01*
D28*
X158800000Y-147050000D02*
X158800000Y-140500000D01*
X140380000Y-136000000D02*
X142380000Y-138000000D01*
X142380000Y-138000000D02*
X156300000Y-138000000D01*
X156300000Y-138000000D02*
X158800000Y-140500000D01*
X156150000Y-149700000D02*
X158800000Y-147050000D01*
X158750000Y-111750000D02*
X156500000Y-109500000D01*
X142260000Y-109500000D02*
X140260000Y-107500000D01*
X158750000Y-118600000D02*
X158750000Y-112000000D01*
X156500000Y-109500000D02*
X142260000Y-109500000D01*
X156150000Y-121200000D02*
X158750000Y-118600000D01*
X158750000Y-112000000D02*
X158750000Y-111750000D01*
X156000000Y-80500000D02*
X142310000Y-80500000D01*
X142310000Y-80500000D02*
X140260000Y-78450000D01*
X158750000Y-83000000D02*
X158500000Y-83000000D01*
X156150000Y-92200000D02*
X158750000Y-89600000D01*
X158500000Y-83000000D02*
X156000000Y-80500000D01*
X158750000Y-89600000D02*
X158750000Y-83000000D01*
D29*
X112000000Y-65500000D02*
X108500000Y-69000000D01*
X108500000Y-69000000D02*
X108500000Y-141280000D01*
X108500000Y-141280000D02*
X110640000Y-143420000D01*
X131190000Y-61810000D02*
X127500000Y-65500000D01*
X134000000Y-61810000D02*
X131190000Y-61810000D01*
X127500000Y-65500000D02*
X112000000Y-65500000D01*
D28*
X142210000Y-52000000D02*
X140260000Y-50050000D01*
X156000000Y-63900000D02*
X158800000Y-61100000D01*
X156100000Y-52000000D02*
X142210000Y-52000000D01*
X158800000Y-61100000D02*
X158800000Y-54700000D01*
X158800000Y-54700000D02*
X156100000Y-52000000D01*
D29*
X167730000Y-156730000D02*
X164960000Y-159500000D01*
X164960000Y-159500000D02*
X139500000Y-159500000D01*
X140800000Y-149700000D02*
X140910000Y-149700000D01*
X139500000Y-159500000D02*
X138500000Y-158500000D01*
X138500000Y-152000000D02*
X140800000Y-149700000D01*
X138500000Y-158500000D02*
X138500000Y-152000000D01*
X158000000Y-123000000D02*
X160000000Y-121000000D01*
X164000000Y-121000000D02*
X169000000Y-126000000D01*
X169000000Y-126000000D02*
X169000000Y-129000000D01*
X154000000Y-113500000D02*
X154000000Y-121500000D01*
X154000000Y-121500000D02*
X155500000Y-123000000D01*
X155500000Y-123000000D02*
X158000000Y-123000000D01*
X160000000Y-121000000D02*
X164000000Y-121000000D01*
X155500000Y-112000000D02*
X154000000Y-113500000D01*
X154000000Y-142125000D02*
X154000000Y-150500000D01*
X155000000Y-151500000D02*
X157500000Y-151500000D01*
X163633884Y-149500000D02*
X169000000Y-154866116D01*
X157500000Y-151500000D02*
X159500000Y-149500000D01*
X154000000Y-150500000D02*
X155000000Y-151500000D01*
X159500000Y-149500000D02*
X163633884Y-149500000D01*
X155625000Y-140500000D02*
X154000000Y-142125000D01*
X169000000Y-154866116D02*
X169000000Y-158000000D01*
X155934745Y-94000000D02*
X158000000Y-94000000D01*
X155500000Y-82950000D02*
X154250000Y-84200000D01*
X160000000Y-92000000D02*
X163767767Y-92000000D01*
X163767767Y-92000000D02*
X169000000Y-97232233D01*
X169000000Y-97232233D02*
X169000000Y-100500000D01*
X154250000Y-84200000D02*
X154250000Y-92315255D01*
X154250000Y-92315255D02*
X155934745Y-94000000D01*
X158000000Y-94000000D02*
X160000000Y-92000000D01*
X163608884Y-63500000D02*
X169000000Y-68891116D01*
X155500000Y-54550000D02*
X154250000Y-55800000D01*
X157500000Y-65500000D02*
X159500000Y-63500000D01*
X154250000Y-55800000D02*
X154250000Y-64750000D01*
X154250000Y-64750000D02*
X155000000Y-65500000D01*
X155000000Y-65500000D02*
X157500000Y-65500000D01*
X169000000Y-68891116D02*
X169000000Y-71820000D01*
X159500000Y-63500000D02*
X163608884Y-63500000D01*
X140260000Y-116500000D02*
X140260000Y-112000000D01*
X123700000Y-107500000D02*
X110640000Y-120560000D01*
X135880000Y-107620000D02*
X135760000Y-107500000D01*
X135760000Y-107500000D02*
X123700000Y-107500000D01*
X140385000Y-145000000D02*
X140385000Y-140500000D01*
X114500000Y-126960000D02*
X110640000Y-123100000D01*
X135000000Y-150500000D02*
X132000000Y-150500000D01*
X137500000Y-148000000D02*
X135000000Y-150500000D01*
X114500000Y-133000000D02*
X114500000Y-126960000D01*
X132000000Y-150500000D02*
X114500000Y-133000000D01*
X135380000Y-93280000D02*
X110640000Y-118020000D01*
X140260000Y-87500000D02*
X140260000Y-82950000D01*
X140260000Y-59050000D02*
X140260000Y-54550000D01*
X135500000Y-90620000D02*
X110640000Y-115480000D01*
X135500000Y-65500000D02*
X135500000Y-90620000D01*
M02*
