M48
; DRILL file {KiCad 8.0.1} date 2025-02-18T20:23:33+0100
; FORMAT={-:-/ absolute / metric / decimal}
; #@! TF.CreationDate,2025-02-18T20:23:33+01:00
; #@! TF.GenerationSoftware,Kicad,Pcbnew,8.0.1
; #@! TF.FileFunction,Plated,1,2,PTH
FMAT,2
METRIC
; #@! TA.AperFunction,Plated,PTH,ViaDrill
T1C0.500
; #@! TA.AperFunction,Plated,PTH,ComponentDrill
T2C0.750
; #@! TA.AperFunction,Plated,PTH,ComponentDrill
T3C0.800
; #@! TA.AperFunction,Plated,PTH,ComponentDrill
T4C0.900
; #@! TA.AperFunction,Plated,PTH,ComponentDrill
T5C1.016
; #@! TA.AperFunction,Plated,PTH,ComponentDrill
T6C1.100
; #@! TA.AperFunction,Plated,PTH,ComponentDrill
T7C1.300
%
G90
G05
T1
X135.38Y-93.28
X135.5Y-65.5
X135.88Y-107.62
X137.5Y-148.0
T2
X167.73Y-70.55
X167.73Y-99.23
X167.73Y-127.73
X167.73Y-156.73
X169.0Y-71.82
X169.0Y-100.5
X169.0Y-129.0
X169.0Y-158.0
X170.27Y-70.55
X170.27Y-99.23
X170.27Y-127.73
X170.27Y-156.73
T3
X127.5Y-50.26
X127.5Y-65.5
X140.26Y-50.05
X140.26Y-54.55
X140.26Y-59.05
X140.26Y-78.45
X140.26Y-82.95
X140.26Y-87.5
X140.26Y-107.5
X140.26Y-112.0
X140.26Y-116.5
X140.38Y-136.0
X140.385Y-140.5
X140.385Y-145.0
X155.5Y-50.05
X155.5Y-54.55
X155.5Y-59.05
X155.5Y-78.45
X155.5Y-82.95
X155.5Y-87.5
X155.5Y-107.5
X155.5Y-112.0
X155.5Y-116.5
X155.62Y-136.0
X155.625Y-140.5
X155.625Y-145.0
X160.5Y-65.05
X160.5Y-151.0
X161.0Y-93.5
X161.0Y-122.5
X163.0Y-65.05
X163.0Y-151.0
X163.5Y-93.5
X163.5Y-122.5
T4
X169.5Y-63.82
X169.5Y-66.36
X169.5Y-92.46
X169.5Y-95.0
X169.5Y-120.96
X169.5Y-123.5
X169.5Y-149.735
X169.5Y-152.275
T5
X110.64Y-110.4
X110.64Y-112.94
X110.64Y-115.48
X110.64Y-118.02
X110.64Y-120.56
X110.64Y-123.1
X110.64Y-125.64
X110.64Y-128.18
X110.64Y-130.72
X110.64Y-133.26
X110.64Y-135.8
X110.64Y-138.34
X110.64Y-140.88
X110.64Y-143.42
X110.64Y-145.96
X110.64Y-148.5
X133.5Y-110.4
X133.5Y-112.94
X133.5Y-115.48
X133.5Y-118.02
X133.5Y-120.56
X133.5Y-123.1
X133.5Y-125.64
X133.5Y-128.18
X133.5Y-130.72
X133.5Y-133.26
X133.5Y-135.8
X133.5Y-138.34
X133.5Y-140.88
X133.5Y-143.42
X133.5Y-145.96
X133.5Y-148.5
T6
X134.0Y-54.19
X134.0Y-61.81
T7
X140.76Y-63.9
X140.76Y-71.5
X140.91Y-92.2
X140.91Y-99.8
X140.91Y-121.2
X140.91Y-128.8
X140.91Y-149.7
X140.91Y-157.3
X153.46Y-71.5
X153.61Y-99.8
X153.61Y-128.8
X153.61Y-157.3
X156.0Y-63.9
X156.15Y-92.2
X156.15Y-121.2
X156.15Y-149.7
T3
X115.912Y-58.6G85X115.912Y-56.4
G05
X118.012Y-62.3G85X120.212Y-62.3
G05
X122.112Y-56.4G85X122.112Y-58.6
G05
X158.75Y-84.1G85X158.75Y-81.9
G05
X158.75Y-113.1G85X158.75Y-110.9
G05
X158.8Y-55.8G85X158.8Y-53.6
G05
X158.8Y-141.6G85X158.8Y-139.4
G05
X162.85Y-78.2G85X160.65Y-78.2
G05
X162.85Y-107.2G85X160.65Y-107.2
G05
X162.9Y-49.9G85X160.7Y-49.9
G05
X162.9Y-135.7G85X160.7Y-135.7
G05
X164.95Y-81.9G85X164.95Y-84.1
G05
X164.95Y-110.9G85X164.95Y-113.1
G05
X165.0Y-53.6G85X165.0Y-55.8
G05
X165.0Y-139.4G85X165.0Y-141.6
G05
M30
